<svg xmlns="http://www.w3.org/2000/svg" width="667.396" height="300.313" viewBox="0 0 667.396 300.313"><path d="M822.2,944.924c-2.249,1.607-3.121,4.5,0,10.372,6.691,12.593,36.8,44.819,36.8,44.819h50.292Z" transform="translate(-605.716 -699.865)" fill="#648989"/><path d="M1237.244,928.273c12.183-4.216,15.17-17.746,17.623-23.355,3.526-8.058,8.361-10.476,8.372-17.648.01-7.467-3.974-17.764-35.4-29.794-31.971-12.24-77.779-17.5-96.068-19.272Z" transform="translate(-637.113 -689.111)" fill="#648989"/><path d="M1162.554,874.442c23.454-2.814,47.465-2.006,68.614,2.4,4.695.978,6.26-4.479,1.677-6.311-13.174-5.265-45.485-12.171-82.341-8.066Z" transform="translate(-639 -691.431)" fill="#92a0a0"/><path d="M1188.568,899.031c17.946-.875,31.958-1.5,44.688-2.6,4.779-.413,4.806-5.78-.059-6.607-8.744-1.485-32.3-2.1-53.164-.652Z" transform="translate(-641.976 -694.164)" fill="#92a0a0"/><path d="M953.561,708.71c-2.116,3.632.411,6.235,8.048,4.09,11.806-3.316,29.518-8.336,34.023-9.156l3.408,5.441c-4.364,3.11-7.84,7.239-6.243,9.917,3.33,5.585,36.211-3.037,49.109-6.928l2.809,6.338s-13.047,7.15-10.723,12.381c2.876,6.472,45.152-3.378,45.152-3.378l-.232,6.482c-8.31,3.049-17.875,9.865-15.891,15.2,2.267,6.1,15.669,4.533,23.245,3.511l1.794,6.457c-7.575,2.253-13.631,9.147-12.14,14.6,1.694,6.2,14.312,5.894,24.753,5.485l1.137,5.68c-9.214,3.275-14.141,15.289-4.723,24.092l-113.3-63.921-59.17-28.05Z" transform="translate(-616.239 -675.553)" fill="#648989"/><path d="M1226.106,911.914c3.838-.536,7.774-1.546,11.312-2.1,4.484-.7,6.52,3.822,2.548,6.67a37.343,37.343,0,0,1-7.194,4.121Z" transform="translate(-646.618 -696.32)" fill="#92a0a0"/><path d="M1029.928,764.3c19.117-14.274,44.661-24.235,65.657-29.312,4.664-1.128,3.723-6.912-1.189-6.421-14.37,1.439-48.75,8.965-77.853,28Z" transform="translate(-625.502 -678.061)" fill="#92a0a0"/><path d="M1049.963,785.487c17.553-10.655,38.326-18.215,55.9-22.374,4.667-1.105,3.756-6.894-1.157-6.426-12.845,1.221-41.682,7.224-68.5,21.958" transform="translate(-627.483 -680.895)" fill="#92a0a0"/><path d="M1081.507,805.823a211.634,211.634,0,0,1,38.138-13.043c4.667-1.105,3.756-6.894-1.157-6.426-9.973.948-29.582,4.778-50.4,13.337" transform="translate(-630.695 -683.884)" fill="#92a0a0"/><path d="M994.22,752.544c16.2-14.589,46.814-30.292,62.78-35.442,4.052-1.307,2.884-7.151-1.959-6.2-14.172,2.784-47.692,13.51-74.875,35.2Z" transform="translate(-621.837 -676.274)" fill="#92a0a0"/><path d="M956.832,737.007c14.864-11.86,33.385-22.949,45.1-28.3,3.62-1.651,1.992-7.256-2.74-5.852-10.933,3.239-33.408,12.543-54.7,28.2" transform="translate(-618.242 -675.451)" fill="#92a0a0"/><path d="M924.033,722.968a221.815,221.815,0,0,1,28.332-14.377c3.692-1.477,2.333-7.153-2.461-5.974-7.9,1.941-21.824,6.689-37.148,14.569" transform="translate(-615.044 -675.433)" fill="#92a0a0"/><path d="M705.041,859.8C756.019,899.74,861.7,962.4,881.459,972.655h367.623c-35.395-26.036-43.4-36.754-59.658-57.357-18.772-23.781-53.849-54.7-81.724-76.646C1020.615,770.1,945.783,730,883.092,708.3c-52.692-18.239-118.9-20.233-165.622-24.567a450.743,450.743,0,0,1-49.859-7.056c-15.5-3.235-31.109-7.61-39.531-.222-2.624,2.3-9.328,7.746-2.037,35.033s8.518,28.96,8.518,28.96A150.348,150.348,0,0,1,610.61,710.9c-8.229-13.5-15.416-14.918-22-11.742-7.11,3.429-10.608,14.216-1.223,31.065C609.021,769.072,641.429,809.959,705.041,859.8Z" transform="translate(-581.685 -672.405)" fill="#e9e7de"/><path d="M741.5,787.527c7.455-9.893,9.7-15.984,13.58-22.876,3.335-5.922,11.443-7.237,15.892-6.349,4.388.877,13.869,4.333,13.622,20.556s-4.505,35.409-14.984,50.649c-8.233,11.97-31.086,22.322-46.809,12.63-9.04-5.572-13.647-19.575-4.953-31.329C725.251,800.8,734.058,797.4,741.5,787.527Z" transform="translate(-594.938 -681.035)" fill="#f9f9f9"/><path d="M1213.02,972.861c6.938,0,43.324-.064,43.324-.064-35.395-26.036-43.4-36.754-59.658-57.357-18.772-23.781-53.849-54.7-81.724-76.646-87.085-68.556-161.917-108.656-224.607-130.356-52.692-18.239-118.9-20.233-165.622-24.567a450.743,450.743,0,0,1-49.859-7.056c-3.6-.647-9.026-1.961-13.284-2.779-3.846-.737-6.988.439-7.69,2.9-.586,2.05.586,4.492,4.688,6.055s12.213,4.216,14.162,9.962c1.679,4.95,1.03,8.417-1.563,16.115-2.137,6.344-4.1,19.548,4.4,29.69,9.082,10.84,24.224,13.194,35.8,8.7,6.609-2.566,12.081-7.21,16.125-15.849,4.946-10.566,10.446-17.864,21.694-21.807,13.151-4.609,41.253-6.129,72.8.01,46.508,9.049,102.188,36.706,151.819,69.719,59.215,39.387,102.657,71.9,147.475,113.6C1152.223,921.907,1197.733,963.27,1213.02,972.861Z" transform="translate(-588.947 -672.548)" fill="#d1d0b6"/><path d="M776.083,746.877c1.353-3.728,6.96-3.334,6.737,1.269-.183,3.711-4.612,22.271-9.062,37.158-1.5,5.038-3.795,11.86-5.11,15.35-5.237,13.885-11.241,26.344-19.3,32.153-7.468,5.382-20.345,6.82-32.662,5.208-6.816-.892-6.354-9.191.9-9.4,10.4-.3,18.292-.883,23.36-3.84,9.614-5.609,18.5-27.848,23.883-42.076S774.844,750.292,776.083,746.877Z" transform="translate(-594.8 -679.655)" fill="#93a0a0"/><path d="M680.336,712.578c5.206-9.842,17.556-14.629,28.848-11.121,11.454,3.56,21.14,18.2,12.882,33.693-7.9,14.816-27.882,12.948-36.589,5.294A22.764,22.764,0,0,1,680.336,712.578Z" transform="translate(-591.355 -675.217)" fill="#ede6c3"/><path d="M762.268,877.734" transform="translate(-599.881 -693.095)" fill="none" stroke="#565946" stroke-miterlimit="10" stroke-width="0.5"/><path d="M957.814,984.88S834.128,923.792,758.326,869.27L790.5,858.635l14.179-19.9L816.072,798c1.056-2.833,6.222-4.758,9.915-4.159s6.547,2.837,7.7,8.406c1.228,5.948,3.672,11.425,9.119,12.622,6.355,1.4,10.488-2.3,13.184-6.589s6.907-8.185,12.875-6.741c5.107,1.235,7.314,3.185,8.188,10.035.954,7.492,2.25,12.84,8.151,14.621,4.441,1.341,8.563-.708,13.01-5.837,4.722-5.448,10.033-5.525,13.574-3.962,4.127,1.823,7.635,5.2,6.091,12.147-1.714,7.706-1.776,12.775,3.339,15.606,4.766,2.637,9.533.823,13.73-2.629,4.6-3.786,8.813-5.391,13.766-2.139,4.672,3.068,5.491,7.177,3.179,13.326-2.048,5.448-3.838,11.23-.1,14.573,4.171,3.732,9,2.774,13.874-.5,6.048-4.061,10.038-3.741,13.424-.739,3.779,3.352,3.47,6.82.875,11.712s-3.24,8.469-.819,11.439c2.4,2.949,5.873,4.728,13.628,1.648,7.287-2.895,11.256-.543,13.341,2.053,1.737,2.164,3.064,4.882.8,10.514-2.24,5.574-1.613,8.647,1.238,11.472,2.721,2.694,7.232,3.6,14.134.407,5.6-2.587,9.923-.505,11.719,1.391s4.715,4.728,2.257,11.086c-2.74,7.09-1.5,10.007,1.6,12.277,3.6,2.64,7.614,1.464,13.276-.8,5.154-2.059,9.979-1.018,12.747,1.4,3.093,2.7,4.258,7.442,2.459,12.2-2.168,5.74-2.268,9.357,1.463,12.552,3.474,2.972,8.165,2.709,13.476-.6,5.829-3.633,10.113-2.351,13.35.363,3.764,3.155,4.717,6.976,3.043,11.942a42.8,42.8,0,0,1-4.15,7.779Z" transform="translate(-599.483 -684.63)" fill="#f9f9f9"/><path d="M814.149,716.153c-5.316-.764-7.142-4.368-6.6-6.93s2.953-4.776,8.242-4.747c13.824.073,35.193,4.287,52.4,8.727,19.149,4.94,38.15,12.734,48.135,18.158,6.849,3.721,6.142,8.989,4.829,11.294-.948,1.667-4.013,5.359-12.276,1.754C898.712,739.975,857.05,722.318,814.149,716.153Z" transform="translate(-604.434 -675.637)" fill="#fefefe"/><path d="M947.994,760.626c-3.451-4.506-.755-10.589,7.182-9.256,7.082,1.189,13.9,5.335,17.089,10.273,3.463,5.359-.313,10.8-7.257,9.215C957.573,769.162,950.576,764,947.994,760.626Z" transform="translate(-618.446 -680.343)" fill="#fefefe"/><path d="M1166.9,919.686c-4.328-4.152-.069-11.962,7.928-9.271,6.987,2.352,20.928,14.094,26.974,20.477,6.4,6.76,16.826,17.378,19.783,23.191,3.175,6.241-3.009,11.175-8.733,6.046-6.449-5.778-17.264-15.586-24.386-21.968S1170.2,922.844,1166.9,919.686Z" transform="translate(-640.479 -696.332)" fill="#fefefe"/><path d="M684.451,772.882s-18.057-13.8-28.363-34.7c-6.162-12.493-10.083-23.9-13.413-33.2-1.8-5.021-4.77-9.468-9.28-8.454-5.181,1.165-4.673,8.036-3.33,14.381,1.744,8.236,6.839,28.918,12.669,40.7,5.083,10.274,12.941,33.4,24.856,36.213S693.893,782.773,684.451,772.882Z" transform="translate(-586.469 -674.822)" fill="#f9f9f9"/><path d="M634.817,749.353a58.328,58.328,0,0,0,1.546,6.127c.323,1.1-.741,2.176-2.22.955-2.064-1.7-8.525-8.172-10.947-10.963-2.657-3.061-8.25-1.022-5.748,4.127,7.868,16.186,28.778,30.216,28.778,30.216,3.372,6.407,8.318,15.4,17.31,18.434s23.717-.9,29.338-7.306,4.5-12.589-1.236-18.322c-5.509-5.509-18.451-18.512-25.394-28.14A178.61,178.61,0,0,1,652.358,721.5c-1.87-3.709-7.464-2-6.341,2.3,1.423,5.456,8.372,18.951,15.251,28.941,6.289,9.132,15.172,18.282,19.884,23.748s1.81,9.293-4.241,11.308c-5.732,1.909-11.026,1.037-15.171-2.356-5.965-4.881-18.13-27.063-22.359-37.393C638.271,745.337,634.235,746.006,634.817,749.353Z" transform="translate(-585.225 -677.147)" fill="#93a0a0"/><path d="M685.753,716.864c2.405-5.66,8.248-9.464,15.966-8.432,7.431.994,12.622,8.1,12.343,14.855-.317,7.644-5.056,15.053-15.907,14.446C687.125,737.118,681.865,726.015,685.753,716.864Z" transform="translate(-592.043 -676.018)" fill="#505143"/><path d="M680.232,689.144a4.93,4.93,0,0,1,6.97,3.565c.626,2.8-.508,4.819-2.8,5.54a4.922,4.922,0,0,1-5.8-2.771C677.751,693.619,677.784,690.37,680.232,689.144Z" transform="translate(-591.399 -674.04)" fill="#93a0a0"/><path d="M910.252,798.3c1.659.112,3.661-.306,4.361-1.919.89-2.049.073-4.022-2.215-5.5a34.771,34.771,0,0,0-11.321-4.235c-2.2-.387-4.526-.032-5.3,2.066s.172,3.69,2.4,5.194A32.182,32.182,0,0,0,910.252,798.3Z" transform="translate(-613.307 -683.903)" fill="#d5d5b2"/><path d="M941.983,812.89c1.639.282,3.672.073,4.535-1.459,1.1-1.948.487-3.994-1.636-5.7a34.762,34.762,0,0,0-10.825-5.378c-2.15-.612-4.5-.5-5.483,1.507s-.209,3.689,1.854,5.415A32.163,32.163,0,0,0,941.983,812.89Z" transform="translate(-616.596 -685.265)" fill="#d5d5b2"/><path d="M863.439,786.449c-2.051-.888-3.686-2.463-3.313-4.666s2.42-3.276,4.665-3.313a33.1,33.1,0,0,1,11.534,2.141c2.1.778,3.7,2.7,3.229,4.888-.406,1.9-2.332,2.785-4.384,2.9A26.167,26.167,0,0,1,863.439,786.449Z" transform="translate(-609.736 -683.092)" fill="#d5d5b2"/><path d="M959.954,824.4c-1.338-1.79-1.973-3.971-.552-5.7s3.73-1.637,5.7-.552a33.147,33.147,0,0,1,8.938,7.6c1.43,1.718,1.861,4.184.369,5.847-1.3,1.448-3.41,1.253-5.245.332A26.141,26.141,0,0,1,959.954,824.4Z" transform="translate(-619.663 -687.012)" fill="#d5d5b2"/><path d="M987.778,846.038c-1.362-1.772-2.027-3.944-.63-5.688s3.707-1.689,5.688-.63a33.119,33.119,0,0,1,9.042,7.473c1.454,1.7,1.919,4.157.45,5.841-1.279,1.465-3.391,1.3-5.241.4A26.168,26.168,0,0,1,987.778,846.038Z" transform="translate(-622.462 -689.189)" fill="#d5d5b2"/><path d="M1013.708,870.073c-1.3-1.821-1.878-4.016-.417-5.707s3.767-1.549,5.7-.418a33.1,33.1,0,0,1,8.76,7.8c1.39,1.749,1.763,4.225.232,5.852-1.332,1.417-3.438,1.173-5.252.21A26.189,26.189,0,0,1,1013.708,870.073Z" transform="translate(-625.088 -691.62)" fill="#d5d5b2"/><path d="M1040.463,894.563c-1.231-1.865-1.739-4.079-.219-5.718s3.818-1.419,5.716-.222a33.142,33.142,0,0,1,8.484,8.1c1.328,1.8,1.615,4.284.03,5.859-1.38,1.369-3.52,1.126-5.257.027A29.317,29.317,0,0,1,1040.463,894.563Z" transform="translate(-627.796 -694.096)" fill="#d5d5b2"/><path d="M1066.94,919.3c-1.432-1.717-2.183-3.859-.858-5.659s3.636-1.835,5.656-.86a30.839,30.839,0,0,1,8.973,6.937c1.521,1.638,2.084,4.077.684,5.819-1.219,1.515-3.372,1.513-5.22.615A27.007,27.007,0,0,1,1066.94,919.3Z" transform="translate(-630.424 -696.562)" fill="#d5d5b2"/><path d="M1093.034,940.35c-1.433-1.716-2.184-3.859-.858-5.659s3.635-1.835,5.656-.859a29.305,29.305,0,0,1,8.785,6.663c1.522,1.638,2.085,4.077.685,5.819-1.219,1.515-3.372,1.513-5.22.615C1097.1,944.509,1094.561,942.177,1093.034,940.35Z" transform="translate(-633.053 -698.683)" fill="#d5d5b2"/><path d="M1121.691,961.475c-1.538-1.622-2.422-3.715-1.212-5.594s3.538-2.119,5.591-1.212a31.465,31.465,0,0,1,8.818,5.83c1.621,1.538,2.4,3.761,1.112,5.587-1.121,1.588-3.29,1.78-5.234,1.119A23.385,23.385,0,0,1,1121.691,961.475Z" transform="translate(-635.918 -700.795)" fill="#d5d5b2"/><path d="M1150.208,981.079c-1.651-1.505-2.422-3.715-1.212-5.593s3.538-2.12,5.591-1.212a31.449,31.449,0,0,1,8.819,5.829c1.621,1.538,2.4,3.761,1.111,5.587-1.121,1.589-3.312,1.845-5.234,1.119A31.2,31.2,0,0,1,1150.208,981.079Z" transform="translate(-638.789 -702.771)" fill="#d5d5b2"/><path d="M840.671,775.087c2.416.518,4.106,2.286,3.871,4.509-.22,2.078-1.691,3.257-4.019,3.62s-14.4-.394-17.109-.788c-2.211-.321-4.011-1.888-3.967-4.124.041-2.173,1.711-3.477,4.279-3.893A67.025,67.025,0,0,1,840.671,775.087Z" transform="translate(-605.642 -682.657)" fill="#d5d5b2"/><path d="M900.987,884.01c.7-13.8-17.33-20.318-33.166-27.639-14.636-6.766-48.782-21.818-60.832-26.774a135.3,135.3,0,0,0,6.668-26.376c1.995-12.541,3.26-37.431,1.911-46.086s-9.875-21-13.641-24.974c-3.088-3.256-7.136.334-5.17,3.294,2.264,3.411,8.773,13.078,9.922,22.171s-2.534,35.421-5.457,47.285c-7.872,31.958-20.95,40.761-37.1,45.9-19.076,6.072-61.916,2.832-61.916,2.832s16.785,13.739,18.954,15.118c0,0,38.044,3.2,63.352-12.116,11.939,10.367,40.145,37.219,64.477,45.02C876.524,910.5,900.244,898.712,900.987,884.01Z" transform="translate(-593.828 -678.296)" fill="#93a0a0"/><path d="M804.727,862.5a49.814,49.814,0,0,0,6.644-8.024,485.229,485.229,0,0,0,48.578,28.456c4.973,2.522,3.247,8.213-2.536,6.824C840.961,885.8,812.037,869.069,804.727,862.5Z" transform="translate(-604.159 -690.751)" fill="#e9e7de"/><path d="M879.81,899.526c-5.9-2.075-3.044-9.183,2.815-7.135C888.34,894.388,886.48,901.87,879.81,899.526Z" transform="translate(-611.397 -694.535)" fill="#e9e7de"/></svg>