<svg xmlns="http://www.w3.org/2000/svg" width="347.674" height="114.188" viewBox="0 0 347.674 114.188"><path d="M590.585,584.74c-21.378,22.226-47.709,29.981-93.26,24.872-30.691-3.441-51.818,1.245-70.059,6.676-24.574,7.319-42.138,9.768-62.646,8.745-7.257-.363-16.068-1.6-25.4-2.908-17.709-2.485-37.969-5.486-56.388-3.885-18.635,1.625-27.62,8.027-31.693,12.953-4.228,5.117-4.267,9.747-4.087,11.5.807,7.85,7.367,17.607,32.1,19.505,17.971,1.377,37.115-5.083,48.554-8.946,1.774-.6,3.388-1.144,4.818-1.6,21.336-6.831,39.361-9.938,53.576-9.24l-.222,4.491c-13.669-.674-31.162,2.366-51.983,9.031-1.409.451-3,.989-4.75,1.579-10.64,3.591-27.765,9.372-44.908,9.373-1.813,0-3.624-.065-5.43-.2-21.708-1.665-34.428-10.022-35.815-23.529-.5-4.9,1.354-10.3,5.094-14.823,4.619-5.588,14.363-12.618,34.548-14.377,18.932-1.648,39.268,1.2,57.214,3.72,9.225,1.295,17.94,2.517,25,2.87,20.214,1.013,36.782-1.31,61.138-8.563,18.692-5.566,40.316-9.627,71.811-6.215,39.771,4.306,66.894-2.264,88.024-20.966C585.818,584.8,587.106,584.753,590.585,584.74Z" transform="translate(-242.912 -584.74)" fill="#667c79" opacity="0.6" style="mix-blend-mode:multiply;isolation:isolate"/><path d="M546.587,673.545c3.4.5,6.6.771,8.791.107a6,6,0,0,0,4.333-4.307c.826-3.217-1.689-5.6-4.182-6.794-2.178-1.044-1.289-3.994,1.438-3.506a10.97,10.97,0,0,1,8.3,7.126,10.219,10.219,0,0,1-.131,6.037c-.855,2.577-2.35,4.5-5.827,5.8a1.284,1.284,0,0,0-.464,2.246c2.892,3.236,2.31,7.537,1.365,10.037-1.158,3.064-4.915,7.891-12.787,6.48-2.591-.465-2.659-3.676.339-3.838s6.494-1.517,6.973-5.64c.5-4.348-1.467-7.57-8.82-8.283Z" transform="translate(-273.402 -592.222)" fill="#f4f4f4"/><path d="M460.076,689.652c-.84,4.1-.713,6.67-.157,8.56a5.876,5.876,0,0,0,4.276,4.257c3.165.768,5.965-1.472,7.1-3.931,1-2.148,4.024-1.395,3.578,1.283a10.5,10.5,0,0,1-6.965,7.991,11.66,11.66,0,0,1-6.4-.022,8.238,8.238,0,0,1-5.861-5.387,1.357,1.357,0,0,0-2.269-.573c-3.093,2.557-7.5,2.186-9.959,1.289-3.018-1.1-8.054-4.468-6.265-12.356.571-2.517,3.654-2.373,3.766.286.122,2.941.581,5.988,4.931,6.812,4.088.774,6.99-1.755,8.7-8.795.7-2.872,2.663-11.818,2.663-11.818l5.388,1.009S460.8,686.121,460.076,689.652Z" transform="translate(-262.447 -594.061)" fill="#f4f4f4"/><path d="M528.731,666.451c2.375,1.242,4.009,3.576,3.846,5.795a37.754,37.754,0,0,1-.812,5.787c-.982,3.926-5.157,4.529-7.106,4.646-43.556,2.616-76.445-2.227-109.232-16.228-17.46-7.456-17.456-15.42-15.737-18.921,2.4-4.877,10.745-5.4,15.937-5.519C423.52,641.835,479.722,640.822,528.731,666.451Z" transform="translate(-258.637 -590.506)" fill="#f7ed40"/><path d="M521.521,678.352c-6.172.411-12.159.477-17.823.477-32.516,0-59.1-4.695-85.649-16.5-8.657-3.849-10.937-6.393-12.1-8.046a3.535,3.535,0,0,1,.044-4.594c1.938-1.865,5.655-1.989,14.869-2.065,17.571-.144,61.89,2.1,102.09,21.866,1.831.9,2.907,1.825,2.88,3.935a7.479,7.479,0,0,1-.375,2.81C525,677.437,524.107,678.18,521.521,678.352Z" transform="translate(-259.258 -591.076)" fill="#eaeaea"/><path d="M432.545,654.929a10.266,10.266,0,1,1-10.266-10.267A10.266,10.266,0,0,1,432.545,654.929Z" transform="translate(-259.951 -590.777)" fill="#efc700"/><path d="M424.656,653.922a6.22,6.22,0,1,1-6.219-6.22A6.219,6.219,0,0,1,424.656,653.922Z" transform="translate(-259.973 -591.084)" fill="#565946"/><path d="M453.754,647.128c10.878.438,34.4,5.62,39.867,7.644s3.134,7.92-1.649,6.67c-9.741-2.548-21.582-6-39.117-8.842C449.242,652.011,449.593,646.959,453.754,647.128Z" transform="translate(-263.816 -591.025)" fill="#fefefe"/><path d="M507.936,663.064a4.186,4.186,0,0,1,5.239-2.907,4.357,4.357,0,0,1,3.642,5.208c-.512,1.757-2.587,3.45-5.654,2.491S507.616,664.374,507.936,663.064Z" transform="translate(-269.607 -592.326)" fill="#fefefe"/></svg>