<svg xmlns="http://www.w3.org/2000/svg" width="50" height="120.81" viewBox="0 0 50 120.81"><g transform="translate(-197.797 -82.938)"><path d="M219.31,90.46c0-.191-.11-.333-.377-.344-1.278-.054-1.356-.934-1-2.018a4.631,4.631,0,0,1,2.691-2.644c.321-.139.747-.238,1.082-.345a.653.653,0,0,0,.519-.685,4.659,4.659,0,0,1,.19-1.054.56.56,0,0,1,.517-.431c.309-.006.409.23.477.423a14.484,14.484,0,0,1,.325,1.634,5.158,5.158,0,0,1,.9.2c1.63.451,3.114,1.714,3.322,3.082.174,1.146-.127,1.725-1.135,1.738a.223.223,0,0,0-.209.2,2.842,2.842,0,0,0-.028.375c-.007.29,0,.581,0,.917.358.161.674.315,1,.447a14.286,14.286,0,0,1,4.4,2.668,15.285,15.285,0,0,1,3.963,6.129,19.708,19.708,0,0,1,.795,6,2.213,2.213,0,0,1-.97,2.109c-.462.3-.9.645-1.366.939a1.294,1.294,0,0,0-.666,1.119c-.022.846-.089,1.7-.028,2.536a1.561,1.561,0,0,0,.527.969,1.656,1.656,0,0,1,.618,1.355c.037,1.755.1,3.509.153,5.264.032,1.069.22,1.258,1.283,1.47s2.1.44,3.132.708a1.611,1.611,0,0,1,1.314,1.606c.032.648.129,1.292.165,1.94q.1,1.8.161,3.607a.784.784,0,0,0,.656.837,6.64,6.64,0,0,1,.657.185,1.884,1.884,0,0,1,1.39,1.817c.012,1.494-.05,2.991-.174,4.48a1.985,1.985,0,0,1-.628,1.162c-.956.878-1.964,1.7-2.982,2.509-1.257,1-1.323.984-1.218,2.579.176,2.661.431,5.317.645,7.975.24,2.983.466,5.966.708,8.949.239,2.949.5,5.9.731,8.844.21,2.626.4,5.253.6,7.878.263,3.4.448,6.563.705,9.966a2.063,2.063,0,0,0,1.416,1.913c.969.379,1.921.8,2.893,1.172a1.73,1.73,0,0,1,1.054,1.459q.159,2.87.28,5.743a1.073,1.073,0,0,1-.544.978,8.68,8.68,0,0,1-.924.543,39.292,39.292,0,0,1-11.926,3.515c-1.966.257-3.926.593-5.9.736a50.392,50.392,0,0,1-5.856.088c-2.823-.126-5.656-.278-8.455-.645a38.658,38.658,0,0,1-11.4-2.877c-1.177-.545-2.368-1.06-3.553-1.589a2.14,2.14,0,0,1-1.422-2.393c.172-1.582.261-3.173.408-4.758a1.827,1.827,0,0,1,1.348-1.72c1.081-.354,2.134-.795,3.208-1.171a1.751,1.751,0,0,0,1.277-1.741q.374-6.041.461-12.093c.064-4,.215-7.993.649-11.978.274-2.519.35-5.06.474-7.593.171-3.476.31-6.954.446-10.432.028-.714-.029-1.43-.024-2.145,0-.426-.27-.61-.571-.831-1.256-.923-2.5-1.868-3.736-2.811a3.026,3.026,0,0,1-1.165-2.471c-.038-1.529-.058-3.059-.033-4.588a1.147,1.147,0,0,1,1.179-1.287c.449-.059.91-.023,1.365-.04,1.086-.038,1.328-.277,1.3-1.346-.036-1.4-.124-2.8-.14-4.195-.018-1.641.441-2.191,2.079-2.537.73-.154,1.472-.257,2.213-.35,1.164-.146,1.27-.234,1.3-1.373q.051-2.294.078-4.588c.013-1.067.027-1.139,1-1.509a.91.91,0,0,0,.681-1.025q-.093-1.559-.131-3.121a1.25,1.25,0,0,0-.548-1.081c-.08-.055-.159-.113-.237-.171-1.829-1.37-1.82-1.383-1.817-3.646a14.134,14.134,0,0,1,2.221-8.072,13.791,13.791,0,0,1,7.2-5.343C219.415,91.82,219.331,91.49,219.31,90.46Zm6.228,53.108a22.1,22.1,0,0,0-10.265,1.931,12.466,12.466,0,0,0-7.615,8.807,31.9,31.9,0,0,0-.639,5.122c-.223,3.115-.5,6.226-.71,9.342-.083,1.23-.029,2.469-.071,3.7-.123,3.671-.319,7.341-.115,11.014.041.742.249,1.472.349,2.212a7.62,7.62,0,0,0,2.9,4.918,11.416,11.416,0,0,0,5.548,2.231,54.107,54.107,0,0,0,10.478,1.007,6.148,6.148,0,0,1,1.015.059c.2.041.544.133.549.456s-.208.413-.4.486a6.328,6.328,0,0,1-1.565.179c-.456.018-4.791-.014-7.382-.225a42.374,42.374,0,0,1-7-1.27,29.292,29.292,0,0,1-5.98-2.068,5.039,5.039,0,0,0-.818-.316,2.756,2.756,0,0,0-3.175,1.1,3.6,3.6,0,0,0,.721,5.048,15.715,15.715,0,0,0,2.139,1.352,30,30,0,0,0,8.361,2.573c2.191.446,4.45.551,6.676.825a37.779,37.779,0,0,0,9.056.188c2.679-.314,5.378-.411,8.036-.96a58.1,58.1,0,0,0,7.046-1.947,15.6,15.6,0,0,0,2.265-1.124,1.6,1.6,0,0,0,.838-1.25,10.2,10.2,0,0,0-.217-4.068,1.97,1.97,0,0,0-3.035-1.04,6.981,6.981,0,0,1-1.094.632,25.276,25.276,0,0,1-7.867,2.169,11.169,11.169,0,0,1-1.851.012c-.159-.011-.5-.082-.524-.383s.282-.382.43-.432a6.862,6.862,0,0,1,1.047-.214,22.073,22.073,0,0,0,5.836-1.505,3.091,3.091,0,0,0,1.924-2.514,12.467,12.467,0,0,0,.09-2.333c-.267-3.925-.57-7.848-.865-11.771-.279-3.7-.567-7.393-.845-11.089-.251-3.342-.465-6.687-.752-10.025a25.3,25.3,0,0,0-.88-5.376,6.727,6.727,0,0,0-4.793-4.568A26.609,26.609,0,0,0,225.538,143.567Zm4.733-39.449c.08-.375.634-.258,1.229-.152.7.124,1.935.486,2.723.688.606.155.879-.026.914-.631a5.088,5.088,0,0,0-.081-1.067,11.476,11.476,0,0,0-1.346-3.851c-2.342-4.18-5.822-6.556-10.759-6.419a14.477,14.477,0,0,0-6.523,1.8,11.918,11.918,0,0,0-5.84,7.929,5.568,5.568,0,0,0-.135,1.258c0,.491.195.645.672.554.383-.073.626-.169,1.005-.261a36.874,36.874,0,0,1,11.031-1.176,17.3,17.3,0,0,1,1.834.222c.259.043.571.187.509.518a.417.417,0,0,1-.41.246c-.239-.007-.908-.041-1.567-.052a36.648,36.648,0,0,0-4.781.121,35.582,35.582,0,0,0-7.554,1.377,1.518,1.518,0,0,0-.766.385,1.551,1.551,0,0,0-.251.966c.038.409.43.428.769.389a5.118,5.118,0,0,0,.768-.135,40.007,40.007,0,0,1,8.694-1.088,49.63,49.63,0,0,1,10.579.884c1.09.184,2.18.375,3.27.563.4.069.819.117.969-.381.135-.448-.144-.746-.5-.951a6.939,6.939,0,0,0-1.079-.414,23.868,23.868,0,0,0-2.514-.76C230.777,104.571,230.191,104.494,230.271,104.118Zm-1.555,33.626c2.186-.045,6.317-.126,10.447-.222a10.782,10.782,0,0,0,1.453-.163,1.216,1.216,0,0,0,1.116-1.069,11.55,11.55,0,0,0,.053-2.423,1.366,1.366,0,0,0-1.455-1.3c-2.435-.128-4.87-.311-7.306-.326-6.444-.039-12.887,0-19.33.01-.845,0-1.69.056-2.535.063-2.6.022-5.2.02-7.8.056-.843.012-1.1.279-1.135,1.123-.034.812-.038,1.628,0,2.44.052,1.007.373,1.321,1.352,1.449a32.161,32.161,0,0,0,4.86.217c1.943-.04,3.889.122,5.834.134C218.438,137.761,222.6,137.745,228.716,137.745Zm-17.039-20.789c.263-.059.42-.089.6-.14a29.741,29.741,0,0,1,8.766-1.142c1.593.029,3.184.139,4.775.24.341.021.781.06.8.539.018.436-.361.489-.691.521-.9.087-.958.288-1.047,1.117-.028.225-.025.39-.042.676a.6.6,0,0,1-.491.633,7.489,7.489,0,0,1-1.539-.031.434.434,0,0,1-.349-.48.438.438,0,0,1,.432-.427c.3-.047.767.094.784-.181.045-.713.165-1.449-1-1.52a26.615,26.615,0,0,0-6.217.244c-1.408.226-2.789.608-4.183.919a.784.784,0,0,0-.681.906c.024.553,0,1.107.01,1.66.028,1.153.2,1.288,1.331,1.227,2.4-.13,4.8-.283,7.207-.346a73.348,73.348,0,0,1,10.037.358c.872.1,1.744.2,2.619.26.529.038.754-.143.762-.645.014-.877-.036-1.755-.057-2.633-.011-.486-.331-.675-.739-.769-.633-.146-1.272-.269-1.9-.426a1.564,1.564,0,0,1-.607-.278.4.4,0,0,1,.188-.726,3.479,3.479,0,0,1,.959.1c.63.109,1.256.238,1.878.358.22-.973.173-1.129-.5-1.418a3.814,3.814,0,0,0-1.113-.341c-2.3-.221-4.593-.518-6.894-.578-2.6-.067-5.2.075-7.8.154a16.037,16.037,0,0,0-4.758.975C211.557,115.982,211.613,116.1,211.677,116.956ZM223.6,142.243c2.166,0,4.118,0,6.07,0a2.8,2.8,0,0,0,.582-.044c.341-.073.676-.258.59-.636a.89.89,0,0,0-.57-.544,9.444,9.444,0,0,0-1.834-.212c-1.4-.028-2.8.023-4.2-.012-4.807-.121-9.614-.266-14.421-.4-.227-.007-.456-.02-.682-.01-.691.032-1.093.3-1.11.718-.018.443.311.678,1.075.72,1.556.086,3.113.188,4.671.227C217.121,142.133,220.47,142.183,223.6,142.243Zm2.643-11.88c.236-.209.107-1.358.1-2.067-.007-1.4.009-2.8-.036-4.194-.036-1.076-.288-1.279-1.377-1.307-.13,0-.261,0-.39,0-.809.055-1.037.261-1.038,1.085,0,1.853.021,3.707.056,5.56.007.339-.035.969.18,1.027S225.864,130.7,226.245,130.363Zm-7.79-7.373c-.5,0-.91-.01-1.323,0-1.009.03-1.047.062-1.054,1.047-.012,1.686-.01,3.372-.011,5.058,0,.259.012.519.019.778.008.335.168.584.5.607a8.9,8.9,0,0,0,1.645,0c.16-.019.393-.347.4-.544A41.446,41.446,0,0,0,218.455,122.99Zm3.422,7.542c.373,0,.466-.409.468-.634.017-2.38-.168-4.574-.111-6.813a3.8,3.8,0,0,0-.561-.187,5.838,5.838,0,0,0-.777-.055c-1.012-.011-1.114.071-1.119,1.105-.01,1.887.011,3.773.019,5.66a1.522,1.522,0,0,0,.06.536.637.637,0,0,0,.433.345A14.684,14.684,0,0,0,221.877,130.532Zm-7.118-.285v-6.928a2.841,2.841,0,0,0-1.464-.161,1.089,1.089,0,0,0-.612.219c-.163.154-.139.521-.139.808q0,2.48.015,4.961c.005,1.27.217,1.455,1.484,1.275C214.264,130.388,214.479,130.316,214.758,130.247Zm14.94-1.927c-.017-.366-.023-.483-.023-.878s0-1.786,0-3.118a2.847,2.847,0,0,0-.021-.389c-.1-.717-.478-.987-1.319-.941-.642.035-.877.295-.9,1.018-.007.26.02.52.028.78q.074,2.292.146,4.584c.029.9.09.96,1.025,1.028.13.01.26.026.389.025.425,0,.675-.19.672-.645C229.7,129.3,229.715,128.687,229.7,128.32Zm1.036-1.93c0,.251.025.492.026.743s.037,1.484.051,2.33.189,1,1.051,1.031c.785.03,1.145-.231,1.151-.965.014-1.691-.028-3.382-.027-5.073,0-.638-.33-.961-1.385-1-.609-.025-.845.274-.861,1.033C230.724,125.3,230.738,126.139,230.735,126.39Zm-19.7,3.97a24.411,24.411,0,0,0-.09-6.978,3.529,3.529,0,0,0-.368-.034c-1.338.006-1.446.076-1.441,1.428.007,1.753.077,3.506.127,5.258a1.219,1.219,0,0,0,.133.326Zm-5.355-3.289c.014.46.023.786.027.987s.026.912.022,1.624c0,.467.2.732.688.748.194.007.388.034.582.031.675-.01.81-.074.816-.778.017-1.778-.025-3.557-.071-5.334a.725.725,0,0,0-.313-.54,1.4,1.4,0,0,0-1.742,1.026C205.631,125.736,205.667,126.611,205.681,127.071Zm17.181-38.356c.206-.01.453.028.7.009s1.254.012,2.226-.047c.707-.043.929-.612.515-1.173a2.9,2.9,0,0,0-.481-.483,5.24,5.24,0,0,0-5.762.16,1.741,1.741,0,0,0-.426.636c-.221.594-.039.873.591.891C221.1,88.734,222.656,88.725,222.862,88.715ZM235.8,130.552c.357-.022.7-.2.693-.632-.009-1.751-.022-3.5-.073-5.252a.886.886,0,0,0-.889-.871,3.164,3.164,0,0,0-.543-.014c-.5.033-.542.311-.537.7.024,1.83-.044,3.668.049,5.515a.519.519,0,0,0,.451.554A6.2,6.2,0,0,0,235.8,130.552Zm3.815-1.869c-.067-1.131-.111-2.133-.192-3.132a1.2,1.2,0,0,0-1.071-1.193c-.523-.093-.766.047-.769.572q-.018,2.572.04,5.144c.014.595.3.764,1.089.791.6.021.852-.166.9-.76C239.649,129.592,239.618,129.072,239.618,128.683Zm-14.833-15.559a17.571,17.571,0,0,0-2.258-4.775c-.61,1.535-1.058,3.055-1.614,4.713C222.3,113.164,223.538,113.135,224.785,113.124Zm.714-1.492a12.12,12.12,0,0,0,1.381-4.1,14.475,14.475,0,0,0-3.493-.277A22.068,22.068,0,0,0,225.5,111.632Zm-3.879-4.319c-1.273.067-2.349-.025-3.542.135a24.088,24.088,0,0,0,1.709,4.409C220.748,110.43,220.976,108.921,221.619,107.314Zm6.971.629a14.385,14.385,0,0,0,1.4,4.35,10.942,10.942,0,0,0,1.5-3.969A5.079,5.079,0,0,0,228.591,107.942Zm-13.475,4a36.308,36.308,0,0,0,1.44-4.344,9.057,9.057,0,0,0-3.094.422A10.535,10.535,0,0,0,215.116,111.938Zm2.147-2.726a13.616,13.616,0,0,0-1.184,4.063,26.628,26.628,0,0,0,2.847-.186A14.867,14.867,0,0,0,217.262,109.212ZM234.921,140.6a14,14,0,0,0-1.684.2c-.411.075-.743.316-.691.786a.767.767,0,0,0,.824.668,6.75,6.75,0,0,0,1.255-.014,8.572,8.572,0,0,0,1.687-.363.593.593,0,0,0,.444-.637.657.657,0,0,0-.547-.559A3.31,3.31,0,0,0,234.921,140.6Zm-6.092-27.2a11.12,11.12,0,0,0-1.269-3.993,32.812,32.812,0,0,0-1.2,3.715ZM223.5,91.289a4.514,4.514,0,0,0,1.063-.02c.207-.043.512-.262.529-.426.024-.238-.108-.648-.286-.724a3.35,3.35,0,0,0-2.638-.052.747.747,0,0,0-.37.594.625.625,0,0,0,.455.527A7.709,7.709,0,0,0,223.5,91.289ZM214.4,113.6c-.494-1.68-.843-2.35-1.465-2.745a12.49,12.49,0,0,0,.241,3.066Zm17.429-2.676a10.322,10.322,0,0,0-1.069,2.68l1.318.118A5.311,5.311,0,0,0,231.831,110.929Z" transform="translate(0)" fill="#333" fill-rule="evenodd"/><path d="M246.444,408.254a.686.686,0,0,1,.712.705.74.74,0,0,1-.76.716,2.209,2.209,0,0,1-.86-.073.683.683,0,0,1-.533-.81.663.663,0,0,1,.7-.551c.1,0,.178,0,.291,0S246.229,408.238,246.444,408.254Z" transform="translate(-32.491 -223.979)" fill="#333" fill-rule="evenodd"/><path d="M245.732,329.441a1.831,1.831,0,0,1-.422-.037c-.4-.089-.8-.242-.792-.708a.712.712,0,0,1,.8-.681,2.688,2.688,0,0,1,1.193.24c.469.256.412.729-.072.968A2.469,2.469,0,0,1,245.732,329.441Z" transform="translate(-32.168 -168.742)" fill="#333" fill-rule="evenodd"/><path d="M245.049,299.318c-.353-.056-.567-.179-.632-.429a.9.9,0,0,1,.159-.75,1.176,1.176,0,0,1,1.426-.12.71.71,0,0,1,.318.762C246.258,299.342,245.4,299.374,245.049,299.318Z" transform="translate(-32.083 -147.961)" fill="#333" fill-rule="evenodd"/><path d="M246.22,379.84c.734.029,1.085.27,1.048.717-.039.467-.545.754-1.2.684-.58-.062-1-.385-.977-.754C245.112,380.066,245.553,379.812,246.22,379.84Z" transform="translate(-32.56 -204.424)" fill="#333" fill-rule="evenodd"/><path d="M246.07,354.37c-.691-.014-1.106-.3-1.062-.729.041-.395.42-.6,1.08-.575.685.023,1.118.315,1.081.729C247.135,354.166,246.722,354.382,246.07,354.37Z" transform="translate(-32.504 -185.99)" fill="#333" fill-rule="evenodd"/><path d="M257.762,128.467c.162.308.491,1.527-.168,1.632-.926.147-.782-1.2-.621-1.6A.421.421,0,0,1,257.762,128.467Z" transform="translate(-40.663 -31.171)" fill="#333" fill-rule="evenodd"/><path d="M252.5,129.8c.551-.012.724,1.41.041,1.475S251.862,129.817,252.5,129.8Z" transform="translate(-37.337 -32.268)" fill="#333" fill-rule="evenodd"/><path d="M339.543,444.921c.141.3.4,1.489-.221,1.566-.87.11-.7-1.172-.54-1.545A.406.406,0,0,1,339.543,444.921Z" transform="translate(-96.982 -249.061)" fill="#333" fill-rule="evenodd"/><path d="M334.655,447.564c.515.006.693,1.33,0,1.341S334.057,447.559,334.655,447.564Z" transform="translate(-93.895 -251.055)" fill="#333" fill-rule="evenodd"/></g></svg>