<svg xmlns="http://www.w3.org/2000/svg" width="59.77" height="75.02" viewBox="0 0 59.77 75.02"><g transform="translate(-196.186 -164.716)"><path d="M228.923,179.1c0,.745,0,1.49,0,2.235,0,.852.149.933.946,1.292a21.428,21.428,0,0,1,2.744,1.358,19.952,19.952,0,0,1,2.8,2.137,36.328,36.328,0,0,1,6.285,8.331,26.344,26.344,0,0,1,1.837,4.5,30.9,30.9,0,0,1,1.185,8.282c.062,2.794-.032,5.591-.062,8.387,0,.371-.053.978-.089,1.49a1.671,1.671,0,0,0,.719,1.572c1.292,1.019,2.549,2.154,3.8,3.229,1.835,1.58,3.662,3.171,5.46,4.793a3.954,3.954,0,0,1,1.373,2.37,2.889,2.889,0,0,1-1.368,2.956,6.855,6.855,0,0,1-2.766,1.107,11.693,11.693,0,0,1-11.09-3.785c-1.266-1.367-2.454-2.563-3.769-4.034a1.456,1.456,0,0,0-1.644-.4,27.561,27.561,0,0,1-5.452,1.539c-.764.122-1.534.214-2.3.308a1.111,1.111,0,0,0-1.085,1.3c.036,1.705.12,4.052.209,5.756a1.717,1.717,0,0,0,.764,1.331c.732.523,1.39.759,2.128,1.273a5.3,5.3,0,0,1,.612.42.615.615,0,0,1-.013,1.035,2.426,2.426,0,0,1-.553.334c-.8.405-1.625.775-2.41,1.211a2.04,2.04,0,0,1-2.19-.013,28.238,28.238,0,0,0-2.668-1.11c-.342-.146-.733-.216-.808-.67-.082-.5.28-.716.607-.957.424-.313,1.08-.792,1.518-1.084a1.311,1.311,0,0,0,.708-1.2c-.044-.93-.091-2.094-.153-3.023-.074-1.115-.064-2.231-.185-3.342-.094-.859-.334-1.017-1.18-1.147q-2.064-.321-4.115-.723c-.908-.181-1.165-.045-1.14.881.037,1.364.151,2.726.215,4.089.053,1.115.129,2.968.112,3.35a1.38,1.38,0,0,1-.288.828,17.55,17.55,0,0,1-1.706,1.994,2.631,2.631,0,0,1-1.457.515,13.172,13.172,0,0,1-4.9-.278c-.519-.148-1.124-.286-1.216-.863a1.349,1.349,0,0,1,.847-1.337,10.493,10.493,0,0,1,2.191-.666c.78-.226,1.457-.4,2.1-.637a2.2,2.2,0,0,0,1.514-2.2c-.01-1.553-.007-3.445-.017-5,0-.248-.041-.495-.054-.743a2.5,2.5,0,0,0-.973-2.031c-.5-.4-.911-.96-1.772-1.647s-2.691-2.264-4.393-3.934a23.772,23.772,0,0,1-6.78-11.443,20.761,20.761,0,0,1-.449-5.731,29.082,29.082,0,0,1,1.549-8.34,29.7,29.7,0,0,1,3.248-6.463c1.208-1.769,2.35-3.277,3.4-4.623a7.956,7.956,0,0,0,1.054-1.652,1.52,1.52,0,0,0-.431-1.88,3.856,3.856,0,0,0-2.2-.747,47.43,47.43,0,0,1-7.1-.669,12.369,12.369,0,0,0-2.227-.076c-1.378,0-1.909-.706-1.541-2.04a5.914,5.914,0,0,1,3.508-3.948,11.678,11.678,0,0,1,4.349-.872c2.109-.118,2.909-.317,4.079-1.311a17.188,17.188,0,0,1,4.385-2.93,11.537,11.537,0,0,1,10.781.638,11.016,11.016,0,0,1,5.122,7.733,27.362,27.362,0,0,1,.39,4.149C228.928,178.656,228.9,178.665,228.923,179.1Zm-1.666.085c-.034-.36-.009-.855-.019-1.411a19.52,19.52,0,0,0-.348-3.554,10.459,10.459,0,0,0-1.661-4.027c-2.562-3.41-6.086-4.357-10.119-3.669-2.63.448-4.5,2.367-6.524,3.883a1.156,1.156,0,0,0-.1,1.745,5.272,5.272,0,0,0,.913.782c.325.238.692.417,1.02.651.9.644.942.927.282,1.8-.794,1.046-.77,1.33.168,2.178a5.808,5.808,0,0,1,.53.524,2.245,2.245,0,0,1,.282,2.519,6.129,6.129,0,0,1-.518.772c-1.39,1.868-2.814,3.315-4.068,5.277a38,38,0,0,0-3.2,6.257,23.262,23.262,0,0,0-1.677,10.391,17.263,17.263,0,0,0,.85,4.961,25.277,25.277,0,0,0,7.956,10.814,4.975,4.975,0,0,1,.766.673,15.965,15.965,0,0,0,6.215,4.245,13.973,13.973,0,0,0,4.548.969,2.173,2.173,0,0,0,.987-.089.865.865,0,0,0,.337-.782.7.7,0,0,0-.419-.58,7.723,7.723,0,0,0-1.05-.41,8.086,8.086,0,0,1-.91-.413,2.9,2.9,0,0,1-.516-.394.649.649,0,0,1-.17-.842.609.609,0,0,1,.811-.238,13.194,13.194,0,0,0,7.339.1,1.459,1.459,0,0,1,.641-.021.675.675,0,0,1,.329,1.2,2.139,2.139,0,0,1-.72.415c-.525.184-1.066.324-1.6.474-.239.067-.486.105-.723.175a.618.618,0,0,0-.516.675.9.9,0,0,0,.781.778,2.811,2.811,0,0,0,.641-.028,32.773,32.773,0,0,0,7.047-1.7c1.241-.414,1.951-.571,3.04.6,1.459,1.568,2.851,3.206,4.394,4.684a10.193,10.193,0,0,0,8.443,2.875,5.9,5.9,0,0,0,2.186-.705c1.19-.662,1.3-1.581.408-2.611a13.151,13.151,0,0,0-1.434-1.462c-2.252-1.9-4.539-3.767-6.786-5.677a7.684,7.684,0,0,0-1.921-1.293,17.3,17.3,0,0,0-1.7-.655,32.972,32.972,0,0,1-7.606-4.822,34.7,34.7,0,0,1-6.508-7.137,25.269,25.269,0,0,1-4.284-9.526c-.588-2.878-.505-5.7,1.573-8.09a.984.984,0,0,0,.194-.957c-.075-.3-.17-.6-.235-.9-.415-1.956-.121-3.757,2.017-5.035a1.247,1.247,0,0,0,.632-1.147C227.249,180.672,227.291,179.542,227.256,179.181ZM206,175.963a6.415,6.415,0,0,0,1.71-.193,1.143,1.143,0,0,0,.907-.876c.095-.433-.315-.629-.6-.857-.145-.116-.3-.235-.637-.465a4.384,4.384,0,0,1-1.151-1.377,1.371,1.371,0,0,0-1.4-.829,12.005,12.005,0,0,0-3.824.635,4.773,4.773,0,0,0-2.643,2.085c-.457.826-.235,1.289.688,1.353.892.062,1.783.151,2.672.252A37.924,37.924,0,0,0,206,175.963Z" transform="translate(0 0)" fill="#333"/><path d="M254.747,185.537a1.67,1.67,0,0,1-1.78-1.662,1.7,1.7,0,0,1,1.862-1.674,1.678,1.678,0,0,1,1.662,1.77A1.578,1.578,0,0,1,254.747,185.537Z" transform="translate(-39.793 -12.253)" fill="#333"/><path d="M217.1,190.8c0-.519,1.5-.856,2.309-.7a.557.557,0,0,1-.083,1.106C218.62,191.274,217.1,191.324,217.1,190.8Z" transform="translate(-14.655 -17.764)" fill="#333"/><path d="M222.773,296c.174.34.522,1.865-.358,1.968-1.091.128-.828-1.5-.563-1.959A.5.5,0,0,1,222.773,296Z" transform="translate(-17.823 -91.79)" fill="#333" fill-rule="evenodd"/><path d="M228.675,298.822c.644.013.777,1.736-.025,1.727C227.788,300.539,227.928,298.807,228.675,298.822Z" transform="translate(-22.336 -93.983)" fill="#333" fill-rule="evenodd"/></g></svg>