<svg xmlns="http://www.w3.org/2000/svg" width="70" height="80.28" viewBox="0 0 70 80.28"><g transform="translate(-141.533 -146.149)"><path d="M193.071,147.977a46.372,46.372,0,0,1,7.152-.057,20.555,20.555,0,0,1,4.609.965,12.359,12.359,0,0,1,3.648,1.615,6.419,6.419,0,0,1,2.982,5.113,80,80,0,0,1-.157,9.244,104.472,104.472,0,0,1-1.572,10.873c-.4,2.261-.806,4.511-1.038,6.8-.224,2.211-.636,4.4-.866,6.613a48.365,48.365,0,0,0,.231,8.525,60.114,60.114,0,0,0,1.083,6.48,33.08,33.08,0,0,1,.495,4.076,8.824,8.824,0,0,1-.3,2.228A2.445,2.445,0,0,1,208.06,212c-1.352.8-2.743,1.537-4.128,2.281a2.816,2.816,0,0,1-.783.235.838.838,0,0,1-.963-.371c-.452-.63-.662-.7-1.295-.335a29.857,29.857,0,0,0-2.717,1.829,1.073,1.073,0,0,0-.39,1.2,1.363,1.363,0,0,1-.394,1.308,8.651,8.651,0,0,1-2.009,2.04c-.49.3-.97.534-1.484.028-.313-.308-.633-.174-.916.066-.522.441-1.032.9-1.553,1.339a1.716,1.716,0,0,0-.617,1.137,1.952,1.952,0,0,1-1.331,1.668c-.677.245-1.334.551-2.022.754-1.213.357-1.24.325-1.967-.9-.843.217-1.672.408-2.483.656a.766.766,0,0,0-.454.478,1.231,1.231,0,0,1-1.363,1.007c-1.129.031-2.261-.023-3.392-.053a1.088,1.088,0,0,1-1.127-.716,1.209,1.209,0,0,0-.68-.536c-.544-.2-1.116-.325-1.679-.472-.5-.13-.98-.273-1.365.3a.694.694,0,0,1-.943.109c-.851-.438-1.7-.886-2.531-1.361a1.06,1.06,0,0,1-.466-1.077,3.277,3.277,0,0,0-.491-1.725,6.825,6.825,0,0,1,.085-5.751,9.438,9.438,0,0,1,2.423-3.38c.091-.078.282-.2.19-.41-.253-.57-1.408-.475-2.169-.286-.588.146-1.112.27-1.122,1.069a.9.9,0,0,1-.811.819c-1.511.307-3.02.628-4.54.887a1.276,1.276,0,0,1-.807-.326,1.694,1.694,0,0,0-2.385.384,1.064,1.064,0,0,1-.973.612c-1.677.062-3.353.136-5.03.2a1.232,1.232,0,0,1-1.178-.471,1.088,1.088,0,0,0-.692-.331,7.775,7.775,0,0,0-1.437-.048.831.831,0,0,0-.593.269,1.018,1.018,0,0,1-1.074.427,10.508,10.508,0,0,1-4.683-1.419,3.353,3.353,0,0,1-1.148-1.519,9.24,9.24,0,0,1-.543-7.183,6.922,6.922,0,0,1,5.574-4.618c2.351-.459,4.736-.755,7.07-1.283a33.19,33.19,0,0,0,4.061-1.428c.417-.154.809-.371,1.217-.548a5.762,5.762,0,0,0,3.433-4.078c.662-2.577.29-5.03-.088-7.615-.436-2.98-.9-5.9-1.47-8.854-.434-2.247-.949-4.652-1.322-6.907-.4-2.43-.756-4.846-.973-7.3-.16-1.808-.218-3.716-.2-5.53a27.7,27.7,0,0,1,.339-3.8,5.284,5.284,0,0,1,3.253-3.875,22.027,22.027,0,0,1,6.228-1.99,27.706,27.706,0,0,1,6.45-.4c1.262.1,2.538.064,3.807.074a12.571,12.571,0,0,1,5.4,1.079,17.354,17.354,0,0,1,2.27,1.38,1.092,1.092,0,0,0,1.035.159A43.989,43.989,0,0,1,193.071,147.977Zm-7.579,29.4c2.447-1.231,4.83-1.044,7.216-.615a4.668,4.668,0,0,1,2.767,1.46,9.8,9.8,0,0,1,2.421,5.552,41.075,41.075,0,0,1,0,5.34,32.9,32.9,0,0,0,.046,6.054,2.425,2.425,0,0,0,3.6,1.9c.861-.408,1.669-.928,2.5-1.392a3.535,3.535,0,0,0,1.96-3.442,48.5,48.5,0,0,1,.957-10.416c.341-1.782.614-3.576.887-5.37.261-1.725.494-3.455.717-5.186.375-2.922.747-5.845,1.088-8.771a15.1,15.1,0,0,0,.087-2.362c-.051-1.213-.608-1.552-1.765-1.2a4.575,4.575,0,0,1-1.2.172.432.432,0,0,1-.313-.332.374.374,0,0,1,.139-.348,1.67,1.67,0,0,1,.452-.227c.662-.282,1.338-.535,1.984-.849a1.04,1.04,0,0,0,.588-1.364c-.193-.561-.5-.719-1.214-.618-.2.029-.408.059-.608.1-2.138.466-4.262,1.024-6.419,1.376-1.82.3-3.679.354-5.521.518a24.116,24.116,0,0,1-6.75-.424c-1.44-.28-2.843-.749-4.263-1.129-1.312-.351-1.665-.073-1.839,1.229a15.115,15.115,0,0,0,0,3.684c.235,2.146.352,4.307.631,6.446.318,2.444.74,4.877,1.159,7.306C184.952,175.4,185.231,176.31,185.493,177.38Zm11.391,9.429a12.867,12.867,0,0,0-.777-5.454c-.644-1.561-1.541-2.95-3.348-3.329a23.529,23.529,0,0,0-3.445-.479,6.335,6.335,0,0,0-2.961.758.985.985,0,0,0-.65,1.144c.041.271.075.543.12.814.272,1.656.59,3.306.808,4.969.27,2.072.581,4.152.648,6.235a20.86,20.86,0,0,1-1.2,7.761,14.056,14.056,0,0,1-3.437,5.274c-.8.8-1.643,1.554-2.4,2.389a32.837,32.837,0,0,1-4.686,3.981,26.809,26.809,0,0,0-3.579,3.054,2.507,2.507,0,0,0-.309,3.1,5.505,5.505,0,0,0,3.47,2.7,12.924,12.924,0,0,0,13.78-3.389,52.692,52.692,0,0,1,3.88-3.635,20.005,20.005,0,0,1,6.358-3.689,38.084,38.084,0,0,0,5.99-2.674,3.413,3.413,0,0,0,1.927-3.35c-.368-1.843-.632-3.707-.942-5.562a1.8,1.8,0,0,0-.055-.2c-.28-.979-.851-1.116-1.673-.51a14.439,14.439,0,0,1-2.35,1.446,3.837,3.837,0,0,1-2.818.156,2.929,2.929,0,0,1-2.306-2.484,30.706,30.706,0,0,1-.241-3.686C196.69,190.373,196.811,188.591,196.883,186.809Zm-33.6-12.079a7.549,7.549,0,0,1,1.078-.115,15.381,15.381,0,0,1,4.051.464,6.083,6.083,0,0,1,3.688,2.928,13.679,13.679,0,0,1,1.184,7.315c-.086,1.093-.3,2.183-.3,3.276a15.806,15.806,0,0,0,.32,3.155c.431,2.113,1.949,3.106,3.932,3.529,2.665.569,5.164-.112,7.637-1.016a.951.951,0,0,0,.726-.99,28.182,28.182,0,0,0-.13-4.005c-.536-3.174-.684-6.4-1.449-9.549-.5-2.058-.757-4.177-1.1-6.273-.374-2.3-.742-4.6-1.071-6.907-.241-1.7-.438-3.4-.609-5.1-.15-1.5-.211-3-.36-4.5-.125-1.261-.554-1.628-1.785-1.544a34.955,34.955,0,0,1-8.1.012c-1.822-.3-3.632-.67-5.447-1.014-.772-.146-1.537-.357-2.315-.439a1,1,0,0,0-1.171.771.978.978,0,0,0,.666,1.143,10.65,10.65,0,0,0,2.027.713,31.075,31.075,0,0,0,4.34.812c.347.065.94.163.9.482s-.4.292-.577.276c-1.159-.1-2.328-.159-3.47-.363-1.177-.21-2.322-.584-3.488-.861-.861-.2-1.237.059-1.266.967a22.2,22.2,0,0,0,.06,3.289c.416,3.5.891,7,1.382,10.494C162.782,172.65,163.065,173.715,163.286,174.731Zm-9.317,34.585c0,.286-.571.376-.869.436a11.652,11.652,0,0,1-4.9-.141c-1.2-.269-2.373-.655-3.557-.994-.647-.186-.951.052-.809.7a2.023,2.023,0,0,0,1.5,1.674,34.1,34.1,0,0,0,5.115,1.095,32.447,32.447,0,0,0,8.417-.282,77.282,77.282,0,0,0,7.694-1.816,45.516,45.516,0,0,1,8.431-1.775,2.861,2.861,0,0,0,2-1.494c.021-.261-.322-.259-.562-.253a28.375,28.375,0,0,0-4.8.42c-.933.185-1.872.41-2.806.624-.735.169-1.47.336-2.2.509-1.8.424-3.589.858-5.386,1.272-.326.075-.787-.076-.7-.4.121-.446.735-.5,1.7-.74,2.123-.522,5.335-1.356,7.43-1.981a22.208,22.208,0,0,1,7.53-.84,4.77,4.77,0,0,0,3.512-1.317,10.878,10.878,0,0,0,1.2-1.27,14.856,14.856,0,0,0,3.329-6.624c.046-.211.163-.558.047-.657-.046-.04-.229.019-.4.084a14.944,14.944,0,0,1-1.647.548,14.352,14.352,0,0,1-6.422.271,5.664,5.664,0,0,1-4.371-3.513,10.367,10.367,0,0,1-.5-5.663,14.45,14.45,0,0,0-.633-8.089,4.587,4.587,0,0,0-.655-1.148c-1.566-1.92-5.117-2.5-6.95-1.942a.276.276,0,0,0-.208.311c.023.145.058.43.091.632.532,3.207,1.118,6.407,1.58,9.625.193,1.348.1,2.734.183,4.1a7.483,7.483,0,0,1-.946,3.949,6.929,6.929,0,0,1-2.7,2.89,31.2,31.2,0,0,1-11.809,3.592,12.619,12.619,0,0,0-3.661.952,5.057,5.057,0,0,0-2.641,2.991,2.157,2.157,0,0,0,.094,1.346,2.6,2.6,0,0,0,1.6,1.239,19.9,19.9,0,0,0,6.3,1.3c.514.005,1.122-.024,1.649-.024C153.824,208.916,153.973,209.031,153.969,209.316Zm41.244-54.993a64.424,64.424,0,0,0,9.737-.9,8.461,8.461,0,0,0,1.489-.382.657.657,0,0,0,.166-1.206,2.483,2.483,0,0,0-.439-.265,13.861,13.861,0,0,0-4.258-1.421,26.4,26.4,0,0,0-12.107.5,18.661,18.661,0,0,0-2.754.98,3.034,3.034,0,0,0-.544.382c-.573.56-.453,1.152.285,1.427.127.047.269.051.4.086A37.525,37.525,0,0,0,195.213,154.323Zm-30.646-3.453c.055.468.817.488,1.17.555,1.682.314,3.361.659,5.055.894a33.029,33.029,0,0,0,4.9.448,27.869,27.869,0,0,0,6.205-.776,4.748,4.748,0,0,0,2.347-1.127c.2-.2.487-.4.443-.7s-.414-.446-.676-.5c-1.739-.367-3.476-.8-5.238-1-1.935-.211-3.9-.125-5.844-.278a15.514,15.514,0,0,0-6.7,1.262C165.591,149.886,164.508,150.377,164.566,150.87Zm5.946,66.733c-.219.073-.153.5-.151.771a3.226,3.226,0,0,0,1.439,2.739,11.388,11.388,0,0,0,3.707,1.462c1.587.231,3.137.754,4.777.49,1.283-.206,2.582-.331,3.849-.606a13.322,13.322,0,0,0,2.712-.908,16.241,16.241,0,0,0,4.4-3.323,38.4,38.4,0,0,1,5.151-4.538,17.734,17.734,0,0,1,2.334-1.49,68.3,68.3,0,0,0,6.873-3.462,2.482,2.482,0,0,0,.718-.7.638.638,0,0,0-.07-.552c-.054-.089-.3-.108-.451-.078a3.14,3.14,0,0,0-.564.245l-4.7,2.041a32.162,32.162,0,0,0-3.754,1.664,31.373,31.373,0,0,0-6.667,5.415A13.612,13.612,0,0,1,185,220.446a16.6,16.6,0,0,1-5.684,1.26,14.413,14.413,0,0,1-5.1-1.083,5.865,5.865,0,0,1-3.3-2.63C170.78,217.675,170.688,217.544,170.513,217.6Z" transform="translate(0 0)" fill="#333" fill-rule="evenodd"/><path d="M299.275,191.577a7.476,7.476,0,0,0,.853.2,20.166,20.166,0,0,0,2.214.228,50.439,50.439,0,0,0,6.079-.073,13.671,13.671,0,0,0,1.681-.289c.462-.124.354-.715-.175-.672-.442.027-.882.1-1.324.12a55.108,55.108,0,0,1-8.045-.022c-.346-.032-.81-.052-1.117-.063A.3.3,0,0,0,299.275,191.577Z" transform="translate(-111.246 -31.645)" fill="#333" fill-rule="evenodd"/><path d="M355.559,220.63c.132.32.41,1.6-.336,1.649-.925.062-.631-1.285-.433-1.666A.412.412,0,0,1,355.559,220.63Z" transform="translate(-150.434 -52.398)" fill="#333" fill-rule="evenodd"/><path d="M350.275,221.377c.544-.012.715,1.393.041,1.457S349.645,221.392,350.275,221.377Z" transform="translate(-147.06 -53.118)" fill="#333" fill-rule="evenodd"/></g></svg>