<svg xmlns="http://www.w3.org/2000/svg" width="1301.613" height="41.056" viewBox="0 0 1301.613 41.056"><path d="M1300,0H0V31.888c42.733-.254,88.236-.667,135.246-1.227,42.187-.5,86.723-1.139,132.371-1.889,73.673-1.211,150.931-2.724,236.189-4.625,46.057-1.027,92.027-1.8,136.633-2.3,41.954-.469,83.727-.707,124.157-.707,36.266,0,72.328.191,107.183.569,32.477.352,64.676.873,95.7,1.549,55.139,1.2,107.936,2.918,156.925,5.1,40.339,1.8,77.641,3.886,110.87,6.207,13.725.959,26.556,1.945,38.135,2.931,10.126.863,19.071,1.7,26.587,2.5V0Z" transform="translate(1301.113 40.556) rotate(180)" fill="#0a1a3c" stroke="rgba(0,0,0,0)" stroke-miterlimit="10" stroke-width="1"/></svg>