<svg xmlns="http://www.w3.org/2000/svg" width="1301.127" height="171.417" viewBox="0 0 1301.127 171.417"><path d="M1835.5,335.072H535.5V199.433c42.733,1.079,88.236,2.836,135.246,5.221,42.187,2.14,86.723,4.844,132.371,8.037,73.673,5.152,150.931,11.588,236.189,19.674,46.057,4.368,92.027,7.659,136.633,9.783,41.954,2,83.727,3.009,124.157,3.009,36.266,0,72.328-.814,107.183-2.418,32.477-1.5,64.676-3.712,95.7-6.589,55.139-5.113,107.936-12.413,156.925-21.7a1133.907,1133.907,0,0,0,110.87-26.4c13.725-4.078,26.556-8.273,38.135-12.469,10.126-3.669,19.071-7.252,26.587-10.65V335.071Z" transform="translate(-535 -164.155)" fill="#1b2f5b" stroke="rgba(0,0,0,0)" stroke-miterlimit="10" stroke-width="1"/></svg>