<svg xmlns="http://www.w3.org/2000/svg" width="240" height="39.717" viewBox="0 0 240 39.717"><g transform="translate(-153.68 -218.525)"><g transform="translate(153.679 236.881)"><path d="M162.693,250.525a5.507,5.507,0,0,0-3.728,1.447v-8.9c-3.393,1.613-5.285,1.335-5.285,1.947s2.225,0,2.225,2.309v15.965c0,.223.111.306.25.306a.358.358,0,0,0,.334-.167l.89-1.113a6.922,6.922,0,0,0,10.931-5.813A5.693,5.693,0,0,0,162.693,250.525Zm-1.307,12.4a2.339,2.339,0,0,1-2.42-2.559v-7.62a3.837,3.837,0,0,1,2.5-1.113c1.835,0,3.5,1.613,3.5,6.063C164.973,261.54,163.222,262.93,161.386,262.93Z" transform="translate(-153.681 -242.46)" fill="#1b2f5b"/><path d="M186.885,261.062c-.362,0-.25.612-1.113,1.5a4.149,4.149,0,0,1-3.337,1.169c-2.67,0-4.533-2.476-4.533-4.979v-.306h9.123a5.393,5.393,0,0,0-5.674-5.73,6.542,6.542,0,0,0-6.508,6.481,6.209,6.209,0,0,0,6.369,6.592,5.7,5.7,0,0,0,5.869-4.478A.225.225,0,0,0,186.885,261.062Zm-5.646-7.677c1.835,0,2.725,1.335,2.725,3.783v.612H177.9C177.929,256.084,178.93,253.386,181.239,253.386Z" transform="translate(-158.491 -244.652)" fill="#1b2f5b"/><path d="M205.312,260.261v-17.19c-3.394,1.613-5.285,1.335-5.285,1.947s2.225,0,2.225,2.309v3.421a18.235,18.235,0,0,0-2.225-.223,6.959,6.959,0,0,0-7.12,7.26c0,2.67,1.447,5.813,5.174,5.813a5.543,5.543,0,0,0,4.172-2.2h.056v2.2c3.839-1.391,4.784-1.057,4.784-1.53C207.091,261.54,205.312,261.762,205.312,260.261Zm-3.06.028a2.891,2.891,0,0,1-2.642,1.863c-1.892,0-3.644-1.724-3.644-5.34,0-3.588,1.5-5.618,3.782-5.618a2.4,2.4,0,0,1,2.5,2.5Z" transform="translate(-162.597 -242.46)" fill="#1b2f5b"/><path d="M237.407,260.416c-.195,0-.25.195-.334.639a2.088,2.088,0,0,1-2.086,1.613c-1.641,0-2.81-1.474-4.2-3.949a30.521,30.521,0,0,1,3.282-5.4c1.14-1.28,2.308-.7,2.308-1.335,0-.306-.277-.334-.695-.334-.974,0-1.947.056-2.893.056-.974,0-1.947-.056-2.921-.056-.445,0-.695.028-.695.362,0,.612,2.364-.25,2.364,2.643a6.223,6.223,0,0,1-1.085,3.421,16.3,16.3,0,0,0-5.257-5.145c1.78-.807,3.393-2,3.393-4.283a4.5,4.5,0,0,0-4.7-4.284,5.022,5.022,0,0,0-5.2,4.951,4.952,4.952,0,0,0,1.808,3.95,6.046,6.046,0,0,0-4.478,5.34c0,3.116,2.558,5.507,6.008,5.507a8.669,8.669,0,0,0,6.591-2.671c1.725,2.114,3.171,2.671,4.868,2.671,3.449,0,4.227-2.42,4.227-3.365C237.713,260.527,237.6,260.416,237.407,260.416Zm-13.351-15.381c2.142,0,3.032,1.78,3.032,3.671,0,1.5-.807,3.338-2.42,3.811-1.946-1.28-3.365-2.7-3.365-4.339C221.3,246.231,222.36,245.035,224.057,245.035ZM224,262.947c-2.392,0-4.923-2.225-4.923-5.73,0-1.613.473-3,1.753-3.615,3.449,2.642,4.7,3.226,7.4,7.287A5.841,5.841,0,0,1,224,262.947Z" transform="translate(-167.85 -242.754)" fill="#1b2f5b"/><path d="M256.026,250.525a5.5,5.5,0,0,0-3.727,1.447v-8.9c-3.394,1.613-5.285,1.335-5.285,1.947s2.225,0,2.225,2.309v15.965c0,.223.111.306.25.306a.356.356,0,0,0,.334-.167l.89-1.113a6.922,6.922,0,0,0,10.931-5.813A5.693,5.693,0,0,0,256.026,250.525Zm-1.307,12.4a2.338,2.338,0,0,1-2.419-2.559v-7.62a3.835,3.835,0,0,1,2.5-1.113c1.836,0,3.505,1.613,3.505,6.063C258.307,261.54,256.555,262.93,254.719,262.93Z" transform="translate(-174.895 -242.46)" fill="#1b2f5b"/><path d="M276.343,252.718c-1.864,0-3.255,1.808-3.894,3.728h-.055v-3.728c-3.755,1.669-5.2,1.224-5.2,1.669,0,.723,2.225.111,2.225,2.252v7.066c0,1.807-2.058.945-2.058,1.64,0,.223.195.278.556.278,1.168,0,2.114-.056,3.032-.056s1.864.056,3.031.056c.362,0,.556-.056.556-.278,0-.7-2.058.167-2.058-1.64v-3.95c0-3.5,1.307-4.812,2.142-4.812,1.057,0,.974,1.335,2.281,1.335a1.571,1.571,0,0,0,1.641-1.558A2.013,2.013,0,0,0,276.343,252.718Z" transform="translate(-179.482 -244.652)" fill="#1b2f5b"/><path d="M294.708,261.062c-.362,0-.25.612-1.113,1.5a4.147,4.147,0,0,1-3.337,1.169c-2.67,0-4.533-2.476-4.533-4.979v-.306h9.123a5.392,5.392,0,0,0-5.674-5.73,6.543,6.543,0,0,0-6.508,6.481,6.209,6.209,0,0,0,6.369,6.592,5.7,5.7,0,0,0,5.869-4.478A.225.225,0,0,0,294.708,261.062Zm-5.646-7.677c1.836,0,2.725,1.335,2.725,3.783v.612h-6.063C285.752,256.084,286.753,253.386,289.062,253.386Z" transform="translate(-182.998 -244.652)" fill="#1b2f5b"/><path d="M313.366,263.677c-.334,0-.584.974-1.558.974-.389,0-.529-.362-.529-.7V256c0-2.086-1-3.282-3.393-3.282-3.505,0-6.9,2.17-6.9,4.034a1.306,1.306,0,0,0,1.39,1.362c1.335,0,1.808-.584,2.114-2.2.334-1.7,1.335-2.531,2.67-2.531.7,0,1.056.334,1.056,1v3.588c-4.867,1.5-7.648,2.837-7.648,5.341,0,1.585,1.224,2.475,2.948,2.475a8.525,8.525,0,0,0,4.784-2c.251,1.141.612,2,2.365,2,1.558,0,2.976-1.362,2.976-1.892C313.645,263.733,313.533,263.677,313.366,263.677Zm-5.146-.612a4.9,4.9,0,0,1-3.059,1.613c-1.2,0-1.53-1.307-1.53-2.252,0-1.975,1.947-2.949,4.589-3.894Z" transform="translate(-187.069 -244.652)" fill="#1b2f5b"/><path d="M331.822,262.041l-4.172-7.316c1.029-1.2,1.807-2.392,3.254-3.059,1.224-.584,1.753-.223,1.753-.668,0-.195-.139-.306-.417-.306-1.113,0-2.03.056-2.92.056s-1.78-.056-2.587-.056c-.334,0-.445.139-.445.334,0,.64,2.031-.111,2.031,1.447,0,.862-1.447,2.531-4.757,4.728v-14.13c-3.393,1.613-5.285,1.335-5.285,1.947s2.225,0,2.225,2.309v14.185c0,1.807-2.058.945-2.058,1.64,0,.223.195.278.556.278,1.168,0,2.114-.056,3.031-.056s1.865.056,3.032.056c.362,0,.556-.056.556-.278,0-.7-2.058.167-2.058-1.64V257.9l1.947-1.363,2.058,3.978a4.059,4.059,0,0,1,.612,1.474c0,1.2-1.7.417-1.7,1.14,0,.195.167.306.612.306,1.362,0,2.2-.056,3.059-.056,1.7,0,2.281.056,3.116.056.306,0,.529,0,.529-.25C333.8,262.4,332.489,263.236,331.822,262.041Z" transform="translate(-191.093 -242.46)" fill="#1b2f5b"/><path d="M343.855,245.089c0-1.029.223-2.141,1.141-2.141a.682.682,0,0,1,.7.778c0,.556-.25.89-.25,1.5a1.247,1.247,0,0,0,1.418,1.363,1.666,1.666,0,0,0,1.613-1.808,2.559,2.559,0,0,0-2.642-2.5c-4.061,0-3.2,7.537-5.924,9.735h1.446v9.318c0,1.807-2.058.945-2.058,1.64,0,.223.195.278.556.278,1.168,0,2.114-.056,3.032-.056s1.864.056,3.032.056c.361,0,.556-.056.556-.278,0-.7-2.058.167-2.058-1.64v-9.318h2.642l.417-1.447h-3.059C344.356,248.649,343.855,247.2,343.855,245.089Z" transform="translate(-195.871 -242.28)" fill="#1b2f5b"/><path d="M363.107,263.677c-.333,0-.583.974-1.557.974-.389,0-.529-.362-.529-.7V256c0-2.086-1-3.282-3.393-3.282-3.5,0-6.9,2.17-6.9,4.034a1.306,1.306,0,0,0,1.391,1.362c1.335,0,1.808-.584,2.114-2.2.334-1.7,1.334-2.531,2.67-2.531.695,0,1.056.334,1.056,1v3.588c-4.867,1.5-7.648,2.837-7.648,5.341,0,1.585,1.223,2.475,2.948,2.475a8.525,8.525,0,0,0,4.784-2c.25,1.141.612,2,2.364,2,1.558,0,2.976-1.362,2.976-1.892C363.385,263.733,363.274,263.677,363.107,263.677Zm-5.145-.612a4.9,4.9,0,0,1-3.059,1.613c-1.2,0-1.53-1.307-1.53-2.252,0-1.975,1.947-2.949,4.589-3.894Z" transform="translate(-198.375 -244.652)" fill="#1b2f5b"/><path d="M371.472,254.8c0-.723.723-1.419,2.031-1.419a3.441,3.441,0,0,1,3.282,2.225c.556,1.168.556,1.529.779,1.529.167,0,.223-.055.223-.277v-3.255a10.857,10.857,0,0,0-4.172-.89c-3.227,0-4.423,2.058-4.423,3.533,0,4.478,7.176,3.643,7.176,6.9,0,1.2-.946,1.975-2.364,1.975-1.836,0-2.949-1.057-3.867-2.754-.7-1.334-.5-1.78-.835-1.78-.139,0-.195.083-.195.25v4.088a12.123,12.123,0,0,0,4.367.862c3.282,0,5.173-1.725,5.173-4.172C378.649,257,371.472,257.724,371.472,254.8Z" transform="translate(-202.647 -244.652)" fill="#1b2f5b"/><path d="M392.381,261.737c-.166,0-.195.25-.529.667a2.352,2.352,0,0,1-1.835.946c-1.363,0-1.975-.918-1.975-2.948v-7.176h3.143l.668-1.447h-3.81v-4.172a33.3,33.3,0,0,1-5.118,5.618h2.059v8.038c0,2,1.279,3.365,3.727,3.365a3.712,3.712,0,0,0,3.838-2.7A.184.184,0,0,0,392.381,261.737Z" transform="translate(-205.787 -243.491)" fill="#1b2f5b"/><path d="M411.393,263.705V252.718c-3.95,1.613-5.285,1.419-5.285,1.947s2.225.111,2.225,2.142v6.9c0,1.807-2.058.945-2.058,1.64,0,.223.195.278.556.278,1.168,0,2.114-.056,3.032-.056s1.864.056,3.031.056c.362,0,.556-.056.556-.278C413.451,264.65,411.393,265.512,411.393,263.705Z" transform="translate(-211.057 -244.652)" fill="#1b2f5b"/><circle cx="1.891" cy="1.891" r="1.891" transform="translate(196.832 2.28)" fill="#1b2f5b"/><path d="M428.269,261.062c-.389,0-.7,2.67-4.117,2.67-3.087,0-4.617-2.837-4.617-5.535,0-2.893,1-4.812,3.561-4.812a1.717,1.717,0,0,1,1.974,1.892c0,.75-.056,1.168-.056,1.64a1.568,1.568,0,0,0,1.641,1.7c1.056,0,1.586-.64,1.586-1.835,0-2-1.947-4.061-5.145-4.061-3.449,0-6.342,2.81-6.342,6.954a6.033,6.033,0,0,0,6.258,6.119,5.4,5.4,0,0,0,5.535-4.478C428.546,261.118,428.436,261.062,428.269,261.062Z" transform="translate(-213.476 -244.652)" fill="#1b2f5b"/><path d="M446.636,261.512v-7.872a2.82,2.82,0,0,0-3.171-3.116c-1.807,0-3.115.751-5.09,2.225v-9.68c-3.393,1.613-5.284,1.335-5.284,1.947s2.225,0,2.225,2.309v14.185c0,1.807-2.058.945-2.058,1.64,0,.223.195.278.556.278,1.168,0,2.114-.056,3.032-.056s1.864.056,3.032.056c.362,0,.556-.056.556-.278,0-.7-2.059.167-2.059-1.64V253.53a6.367,6.367,0,0,1,3.449-1.725,1.719,1.719,0,0,1,1.753,1.808v7.9c0,1.807-2.058.945-2.058,1.64,0,.223.195.278.556.278,1.168,0,2.114-.056,3.031-.056s1.864.056,3.032.056c.362,0,.556-.056.556-.278C448.694,262.457,446.636,263.32,446.636,261.512Z" transform="translate(-217.19 -242.46)" fill="#1b2f5b"/><path d="M460.061,263.705V252.718c-3.949,1.613-5.285,1.419-5.285,1.947s2.225.111,2.225,2.142v6.9c0,1.807-2.058.945-2.058,1.64,0,.223.195.278.556.278,1.168,0,2.113-.056,3.031-.056s1.865.056,3.032.056c.362,0,.556-.056.556-.278C462.119,264.65,460.061,265.512,460.061,263.705Z" transform="translate(-222.119 -244.652)" fill="#1b2f5b"/><path d="M458.972,249.013a1.891,1.891,0,1,0-1.892-1.891A1.875,1.875,0,0,0,458.972,249.013Z" transform="translate(-222.642 -242.951)" fill="#1b2f5b"/></g><g transform="translate(153.679 218.526)"><path d="M224.293,225c.92,3.677,3.809,5.214,4.23,5.214a.215.215,0,0,0,.17-.066c.395-.381,1.59-.631,1.59-.749,0-.013-.027-.026-.093-.039a7.356,7.356,0,0,1-5.7-4.584h4.742c.223,0,.288-.079.288-.158,0-.3-.906-1.024-1.247-1.143a.465.465,0,0,0-.145-.039c-.131,0-.6.6-.775.892a.249.249,0,0,1-.21.118h-2.759a8.508,8.508,0,0,0,.079-1.011c0-.342.013-.946.013-1.576H227.8c.223,0,.289-.079.289-.158,0-.223-.762-.985-1.208-1.156a.167.167,0,0,0-.079-.013c-.184,0-.67.67-.8.88a.244.244,0,0,1-.2.118h-1.327c0-2,.013-2.023.3-2.141.184-.079.3-.2.3-.3,0-.355-1.616-.5-1.681-.5s-.079,0-.079.053c0,.013.013.026.013.053a9.6,9.6,0,0,1,.131,1.747v1.09c-.933-.013-2.613-.066-3.756-.21,0,.171.381.683.617.683h.013c1-.105,2.312-.131,3.126-.145v1.458a7.89,7.89,0,0,1-.092,1.129h-.552c-.748,0-3.073-.053-4.413-.21,0,.172.42.684.67.684h.013c1.169-.119,2.942-.144,3.664-.144h.552a7.117,7.117,0,0,1-5.07,5.516c-.184.053-.328.131-.328.184,0,.013.039.026.118.026A7.133,7.133,0,0,0,224.293,225Z" transform="translate(-217.91 -218.542)" fill="#1b2f5b"/><path d="M238.155,227.239a4.061,4.061,0,0,1,.552.683c.2.315.407.447.591.447.25,0,.447-.263.447-.591,0-.473-.42-.92-1.261-1.327a15.511,15.511,0,0,0,.762-3.507c.026-.276.171-.25.289-.315s.249-.145.249-.276c0-.315-.945-.828-1.011-.828-.092,0-.315.25-.368.315s-.092.131-.171.131l-.736.013c.145-.854.25-1.6.315-2.01.053-.3.053-.342.3-.46.171-.079.3-.184.3-.289,0-.381-1.484-.565-1.511-.565s-.039.013-.039.066v.079c.013.131.026.289.026.447a22.456,22.456,0,0,1-.263,2.719,15.122,15.122,0,0,1-1.6-.131c0,.171.368.644.552.644h.013c.368-.053.683-.079.972-.105a34.543,34.543,0,0,1-.972,4.374.479.479,0,0,0-.026.184c0,.236.184.342.394.342a.662.662,0,0,0,.644-.46l.118-.539a3.364,3.364,0,0,1,.828.447,6.271,6.271,0,0,1-2.522,3.337c-.223.145-.342.236-.342.289,0,.013.013.026.039.026A5.648,5.648,0,0,0,238.155,227.239Zm-1.379-1.209c.21-1.051.447-2.456.657-3.69l.828-.013c.066,0,.105.026.105.118a18.994,18.994,0,0,1-.644,3.73A4.712,4.712,0,0,0,236.776,226.031Z" transform="translate(-221.723 -218.557)" fill="#1b2f5b"/><path d="M245.5,222.327a33.189,33.189,0,0,1-3.678-.184c0,.184.407.617.618.617h.012c1.143-.092,2.141-.105,3.048-.105h.722c0,.066-.013.118-.013.171v.013a.379.379,0,0,0,.42.394.517.517,0,0,0,.552-.473v-.026c-.039-.539-.092-1.511-.092-2.01s0-.512.25-.67c.158-.105.276-.2.276-.315,0-.328-.985-.788-1.09-.788a.182.182,0,0,0-.131.066,3.859,3.859,0,0,0-.263.342.185.185,0,0,1-.158.079h-.525c-.447,0-2.456-.013-3.56-.158,0,.184.368.591.592.591h.013c.932-.105,2.534-.105,2.942-.105h.617a.158.158,0,0,1,.171.171c.013.184.013.512.013.906h-.6a29.709,29.709,0,0,1-3.48-.171.945.945,0,0,0,.617.6h.013c1.142-.092,1.943-.105,2.85-.105h.6c0,.394-.013.8-.013,1.156Z" transform="translate(-223.346 -218.623)" fill="#1b2f5b"/><path d="M245.559,230.607a.214.214,0,0,0,.236.184,1.185,1.185,0,0,0,1.248-1.182v-.026c0-.2-.026-.381-.026-.578s-.013-.42-.013-.631v-.236c.013-.368.026-.315.3-.486.145-.092.21-.171.21-.263,0-.2-.512-.525-.736-.657a2.834,2.834,0,0,1,1.208-.7c.368-.039.512-.17.512-.342,0-.314-.893-1.024-1.077-1.024-.039,0-.144.013-.434.355a.3.3,0,0,1-.2.091h-4.913c-.092-.577-.236-.827-.3-.827-.039,0-.052.079-.066.21a2.164,2.164,0,0,1-.814,1.549.747.747,0,0,0-.25.526.519.519,0,0,0,.525.525c.276,0,.933-.355.933-1.576v-.079h4.886c.039,0,.092.013.092.079a6.636,6.636,0,0,1-.355,1.09c-.013,0-.039-.013-.053-.013-.066,0-.158.053-.355.381a.185.185,0,0,1-.158.105h-1.182c0-.079.013-.171.013-.25.013-.406.053-.355.236-.472.118-.066.21-.158.21-.25,0-.236-1.1-.406-1.366-.406-.026,0-.026.013-.026.026a.292.292,0,0,0,.013.091,8.148,8.148,0,0,1,.092,1.261h-.972l-.053-.039a4.988,4.988,0,0,0-1.168-.538c-.027,0-.027.012-.027.039v.053a9.949,9.949,0,0,1,.118,1.353c0,.552-.012,1.484-.091,2.509v.053a.365.365,0,0,0,.38.407.522.522,0,0,0,.539-.486c0-.42-.013-.893-.013-1.34s.013-.893.026-1.209-.012-.289.2-.407l.066-.053h1c0,1.011-.039,2.286-.105,3.823v.039a.4.4,0,0,0,.42.46.6.6,0,0,0,.578-.539V231.2l-.053-1.366A1.966,1.966,0,0,1,245.559,230.607Zm-.762-.893c-.013-.552-.013-1.09-.013-1.629v-.657h1.208c.066,0,.184.013.184.2.013.407.013.709.013,1.025,0,1,0,1.2-.552,1.2a3.4,3.4,0,0,1-.736-.105A.406.406,0,0,0,244.8,229.713Z" transform="translate(-223.033 -219.836)" fill="#1b2f5b"/><path d="M261.345,224.224c0,.026.093.078.211.145a4.107,4.107,0,0,1,1.1.893.514.514,0,0,0,.355.2.417.417,0,0,0,.393-.447c0-.433-.525-.892-1.549-.892C261.832,224.119,261.345,224.119,261.345,224.224Z" transform="translate(-227.783 -219.797)" fill="#1b2f5b"/><path d="M253.775,224.1a1.847,1.847,0,0,0,.854-.184,16.524,16.524,0,0,1,2.785-1.261c.013,0,.013,0,.013.013s-.066.066-.131.158a7.1,7.1,0,0,0-1.235,4.137c0,2.522,1.432,3.376,2.8,3.376.46,0,1.655-.118,1.655-.788a.611.611,0,0,0-.683-.539,1.28,1.28,0,0,0-.368.066,2.252,2.252,0,0,1-.749.131c-.328,0-2.036-.079-2.036-2.759,0-1.641.67-3.559,1.537-4.045a4.455,4.455,0,0,1,1.9-.368,4.345,4.345,0,0,1,.722.053,2.576,2.576,0,0,0,.3.026c.5,0,.722-.236.722-.486,0-.381-.512-.722-1.484-.722h-.066a3.417,3.417,0,0,0-1.077.276,44.707,44.707,0,0,0-4.873,1.97,2.371,2.371,0,0,1-.854.158,2.822,2.822,0,0,1-.592-.066,1.143,1.143,0,0,0-.262-.053c-.066,0-.118.026-.118.158C252.541,223.835,253.145,224.1,253.775,224.1Z" transform="translate(-225.781 -219.067)" fill="#1b2f5b"/><path d="M263.1,223.438c0,.039.093.092.21.145a4.11,4.11,0,0,1,1.143.867.494.494,0,0,0,.355.184.416.416,0,0,0,.381-.447c0-.394-.433-.867-1.5-.867C263.319,223.32,263.1,223.4,263.1,223.438Z" transform="translate(-228.181 -219.616)" fill="#1b2f5b"/><path d="M274.269,220.162c.106.394.342.552.565.552a.6.6,0,0,0,.552-.617c0-.867-1.5-1.366-1.851-1.366-.027,0-.04.013-.04.026s.04.066.106.158A4.65,4.65,0,0,1,274.269,220.162Z" transform="translate(-230.544 -218.572)" fill="#1b2f5b"/><path d="M271.326,220.571a.651.651,0,0,0,.578.473.583.583,0,0,0,.538-.6c0-.749-1.222-1.182-2-1.182-.053,0-.079,0-.079.026s.039.066.118.144A5.1,5.1,0,0,1,271.326,220.571Z" transform="translate(-229.833 -218.692)" fill="#1b2f5b"/><path d="M271.572,227.986c-.013,0-.013-.013-.026-.013a5.3,5.3,0,0,0-1.327-.617.035.035,0,0,0-.039.039.568.568,0,0,1,.013.066,8.234,8.234,0,0,1,.131,1.406,19.016,19.016,0,0,1-.105,2.259v.053c0,.276.21.394.46.394.288,0,.6-.158.6-.46V230.7h5.451c0,.118-.013.236-.013.355v.013a.414.414,0,0,0,.46.407.559.559,0,0,0,.591-.473v-.039c-.053-.7-.105-1.2-.105-1.708,0-.539.013-.539.263-.7.158-.092.236-.171.236-.263,0-.3-1.051-.841-1.117-.841-.026,0-.079,0-.473.447a.215.215,0,0,1-.184.079h-2.824c.21-.263.433-.6.617-.88a.385.385,0,0,1,.263-.2c.223-.053.315-.131.315-.2s-.039-.1-.118-.131l-.118-.039h1.248v.117a.4.4,0,0,0,.434.407.529.529,0,0,0,.565-.486v-.026c-.053-.6-.105-.932-.105-1.248,0-.446.026-.485.25-.6.158-.092.236-.171.236-.263,0-.2-.867-.828-1.051-.828-.079,0-.118.039-.473.447a.207.207,0,0,1-.171.092h-3.034c-.013,0-.013-.026-.027-.026a5.406,5.406,0,0,0-1.273-.617c-.026,0-.039.013-.039.053a.569.569,0,0,1,.013.066,9.705,9.705,0,0,1,.131,1.392,13.431,13.431,0,0,1-.105,1.695v.053a.383.383,0,0,0,.433.394.523.523,0,0,0,.578-.46v-.157h1.155c.013.157.013.328.013.5a6.028,6.028,0,0,1-.1.946Zm.552-1.786c0-.21-.014-.407-.014-.59,0-.985,0-.985.289-1.13h3.218c.118,0,.158.066.158.171.013.315.026.6.026.893,0,.21-.013.42-.013.656Zm4.439,2.115a.153.153,0,0,1,.171.171c.013.25.013.512.013.775,0,.355,0,.722-.013,1.1H271.27c0-.289-.014-.552-.014-.814,0-1.038,0-1.051.224-1.182l.079-.053Z" transform="translate(-229.79 -219.658)" fill="#1b2f5b"/><path d="M277.98,221.012a.207.207,0,0,0-.105.039,2.982,2.982,0,0,0-.368.342.415.415,0,0,1-.2.105h-2.351c.5-.42,1.261-1.2,1.563-1.511a.362.362,0,0,1,.341-.158c.263,0,.42-.079.42-.184,0-.3-1.366-.933-1.511-.933-.026,0-.026.026-.039.118a8.074,8.074,0,0,1-1.064,2.667h-4.938c-.013-.315-.145-1.038-.263-1.038-.026,0-.053.066-.079.21a2.546,2.546,0,0,1-1.182,1.747.88.88,0,0,0-.407.656.539.539,0,0,0,.578.513c.525,0,1.235-.552,1.34-1.76h7.6c.039,0,.079.013.079.066a7.242,7.242,0,0,1-.67,1.248.332.332,0,0,0-.039.092c0,.026,0,.026.026.026a.343.343,0,0,0,.105-.04,6.055,6.055,0,0,1,1.839-.814c.407-.013.565-.131.565-.3C279.228,221.695,278.216,221.012,277.98,221.012Z" transform="translate(-229.249 -218.569)" fill="#1b2f5b"/><path d="M286.827,222.886a3.113,3.113,0,0,0,.472-.039v1.484a1.223,1.223,0,0,0-.748-.275c-.565,0-.946.42-.946,1.339,0,.736.276,2.141,1.116,2.141a3.354,3.354,0,0,0-.1.8c0,1.852,2.088,2,2.64,2,2.4,0,3.376-1.668,3.376-2.443a10.059,10.059,0,0,0-.408-1.628,10.673,10.673,0,0,1-.17-1.708c0-.486.053-1.616.906-1.616a.885.885,0,0,1,.827.762c0,.368-.525.7-1.129,1.037-.131.066-.21.145-.21.2,0,.025.026.039.092.039a1.026,1.026,0,0,0,.223-.039,3.361,3.361,0,0,1,.841-.092,3.744,3.744,0,0,1,.407.026.622.622,0,0,0,.145.012.686.686,0,0,0,.7-.761,1.779,1.779,0,0,0-1.773-1.616c-1.287,0-1.431,1.524-1.431,2.613,0,.579.053,1.274.105,2.1v.145c0,1.471-1.55,2.075-2.706,2.075-.736,0-1.931-.276-1.931-1.3a2.842,2.842,0,0,1,.447-1.327,2.4,2.4,0,0,0,.342-1.181,1.659,1.659,0,0,0-.158-.722c.026-.736.066-1.511.145-2.194.5-.131,1.813-.486,1.813-1.2,0-.368-.394-.368-.749-.368a2.492,2.492,0,0,1-.788-.131v-.053a.867.867,0,0,0-.828-.828.394.394,0,0,0-.407.381c0,.079.079.131.158.21a.851.851,0,0,1,.236.617v.092c-.012.184-.012.381-.012.591-.158.013-.316.026-.486.026a1.8,1.8,0,0,1-1.077-.289.931.931,0,0,0-.394-.21c-.039,0-.053.026-.053.066A1.7,1.7,0,0,0,286.827,222.886Zm.393,3.034c-.066.355-.183.788-.485.788-.486,0-.749-.985-.749-1.379,0-.158.039-.748.446-.748.342,0,.788.631.788,1.287Zm.828-4.242c.039-.184.079-.342.105-.5.552.315.552.328.552.368,0,.144-.46.289-.7.355Z" transform="translate(-233.228 -218.893)" fill="#1b2f5b"/><path d="M304.524,226.027c0,1.261-.013,2.4-.026,2.719-.026.486-.25.67-.867.67a10.2,10.2,0,0,1-1.655-.2.64.64,0,0,0-.145-.013c-.026,0-.053,0-.053.013,0,.118,1.392.7,1.629,1.09a.331.331,0,0,0,.328.2,1.675,1.675,0,0,0,1.773-1.589v-.053c-.066-1.445-.066-1.524-.066-2.837h5.043c.223,0,.289-.066.289-.144,0-.211-.946-1.249-1.353-1.249-.223,0-.723.8-.814.946a.272.272,0,0,1-.223.118h-2.942v-2.324h4.1c.223,0,.276-.08.276-.158a2.329,2.329,0,0,0-1.3-1.156c-.145,0-.539.525-.775.88a.294.294,0,0,1-.223.118h-2.075c0-1.839.013-1.931.184-2s.276-.145.276-.236c0-.145-.3-.21-.394-.223.867-.105,1.628-.223,2.206-.342a.2.2,0,0,1,.093-.013,1.128,1.128,0,0,1,.223.039.775.775,0,0,0,.276.053c.131,0,.21-.039.21-.145,0-.342-1.051-1.143-1.051-1.143s-.04.026-.092.066c-.828.657-5.136,1.445-7.211,1.642-.2.013-.276.053-.276.105s.145.105.328.105c1.208,0,2.759-.092,4.2-.236.092.539.092,2.233.092,2.325h-.184c-.736,0-3.034-.053-4.347-.21,0,.171.394.67.643.67h.013c1.143-.118,2.916-.145,3.626-.145h.25c0,.683.013,1.524.013,2.324h-.933c-.762,0-3.245-.053-4.6-.21,0,.172.367.683.6.683h.013c1.168-.118,3.178-.145,3.914-.145Z" transform="translate(-236.34 -218.646)" fill="#1b2f5b"/><path d="M327.563,222.542a.52.52,0,0,0,.355.2.417.417,0,0,0,.395-.447c0-.433-.525-.893-1.55-.893-.026,0-.512,0-.512.105,0,.026.092.079.21.145A4.109,4.109,0,0,1,327.563,222.542Z" transform="translate(-242.535 -219.179)" fill="#1b2f5b"/><path d="M317.078,226.042a2.373,2.373,0,0,0,1.642-.775,5.888,5.888,0,0,1,3.966-1.956,2.135,2.135,0,0,1,2.338,1.956c0,1.525-1.865,3.534-6.134,4.2-.393.066-.669.131-.669.184s.21.079.735.079h.066c4.571,0,6.961-2.181,6.961-4.125,0-1.523-1.536-2.85-3.454-2.85a8.077,8.077,0,0,0-4.1,1.445,6.3,6.3,0,0,1-2.273.972c-.184.012-.328.025-.328.118A1.252,1.252,0,0,0,317.078,226.042Z" transform="translate(-240.167 -219.488)" fill="#1b2f5b"/><path d="M328.194,220.867a4.109,4.109,0,0,1,1.143.867.491.491,0,0,0,.354.184.415.415,0,0,0,.381-.447c0-.591-.8-.854-1.471-.854-.315,0-.617.053-.617.118C327.984,220.775,328.076,220.814,328.194,220.867Z" transform="translate(-242.929 -219.001)" fill="#1b2f5b"/><path d="M336.126,229.685c.027.46.25.657.486.657.3,0,.644-.342.644-.893,0-1.511-1.654-3.4-2.758-4.571a.8.8,0,0,1-.236-.565,1.187,1.187,0,0,1,.145-.526,19.863,19.863,0,0,1,2.4-2.534,1.355,1.355,0,0,0,.38-.854c0-.722-.906-1.09-1.117-1.09-.092,0-.131.026-.131.105a.516.516,0,0,0,.131.263.413.413,0,0,1,.093.276,1.947,1.947,0,0,1-.395.919c-.459.67-1.457,2-1.786,2.626a1.859,1.859,0,0,0-.25.854,1.337,1.337,0,0,0,.355.893A9.256,9.256,0,0,1,336.126,229.685Z" transform="translate(-244.237 -218.704)" fill="#1b2f5b"/><path d="M344.718,224.17c0,1.051.525,2.048.893,2.048.263,0,.486-.328.486-.722a1.059,1.059,0,0,0-.079-.395,3.707,3.707,0,0,1-.395-1.628c0-1.287.684-2.325,1.38-2.325.814,0,1.379,1.524,1.379,3.178a7.4,7.4,0,0,1-2.942,5.964c-.289.2-.407.315-.407.355,0,.013.013.013.026.013a6.882,6.882,0,0,0,4.335-6.4c0-1.746-.7-3.73-2.089-3.73-.59,0-1.2.433-1.562,1.406-.053.145-.092.21-.106.21a.046.046,0,0,1-.013-.026.883.883,0,0,1,.04-.184,7.935,7.935,0,0,0,.433-1.918c0-.788-.486-1.051-.775-1.051a.462.462,0,0,0-.42.3c0,.079.105.145.21.2.157.079.21.328.21.644a10.31,10.31,0,0,1-.236,1.695A12.606,12.606,0,0,0,344.718,224.17Z" transform="translate(-246.733 -218.626)" fill="#1b2f5b"/><path d="M360.435,221.025a5.325,5.325,0,0,0-5.306,5.149,2.162,2.162,0,0,0,.315,1.222c.512.749.775,1.681,1.471,1.681,1.247,0,3.428-3.008,3.428-5.753a2.44,2.44,0,0,0-.539-1.8c.145-.013.289-.026.434-.026h.053a3.6,3.6,0,0,1,3.744,3.7c0,2.561-2.062,4.2-4.361,4.833-.394.105-.591.2-.591.263,0,.026.053.039.184.039a7.532,7.532,0,0,0,4.3-1.747,4.606,4.606,0,0,0,1.471-3.336A4.244,4.244,0,0,0,360.435,221.025Zm-3.429,6.791c-.564,0-1.155-.88-1.155-2.036a4.436,4.436,0,0,1,3.191-4.111l.053-.013a.407.407,0,0,0,.105-.026.363.363,0,0,1,.118-.013c.394,0,.473.539.473,1.13C359.792,225.071,357.913,227.816,357.007,227.816Z" transform="translate(-249.099 -219.094)" fill="#1b2f5b"/><path d="M377.654,225.714a6.433,6.433,0,0,0-3.231,1.129c-.013-.774-.039-1.576-.039-2.337,1.064-.565,1.419-.868,1.419-1.287a.382.382,0,0,0-.434-.381h-.092a3.52,3.52,0,0,1-.854-.145,2.139,2.139,0,0,0,.013-.276c0-.657-.709-.933-1.064-.933a.621.621,0,0,0-.656.46c0,.079.091.131.328.131.551,0,.63.394.736,1.9a3.119,3.119,0,0,1-1.5.394,2.8,2.8,0,0,1-.933-.145.612.612,0,0,0-.21-.066c-.039,0-.066.026-.066.1,0,.867.88.933,1.182.933a3.485,3.485,0,0,0,1.562-.406c.014.538.039,1.116.039,1.694,0,.236,0,.486-.012.723-1.814,1.13-2.181,1.248-2.325,1.248a.366.366,0,0,1-.158-.053.342.342,0,0,0-.145-.039c-.263,0-.6.578-.6.814,0,.21.131.368.46.368a2.393,2.393,0,0,0,1.287-.486,1.808,1.808,0,0,1,1.076.657.562.562,0,0,0,.447.342c.172,0,.578-.118.578-1.09v-.079l-.026-1.392a5.119,5.119,0,0,1,3.008-1.418c.775,0,1.55.341,1.55,1.063,0,.985-1.13,1.589-1.918,1.589a.885.885,0,0,1-.946-1,2.217,2.217,0,0,1,.092-.631,1.631,1.631,0,0,0,.079-.447c0-.039,0-.066-.026-.066a3.014,3.014,0,0,0-.6,1.708,1.25,1.25,0,0,0,1.379,1.327c1.2,0,2.8-1.011,2.8-2.351C379.848,226.488,379.23,225.714,377.654,225.714Zm-3.257-2.364c0-.2.012-.368.026-.5.25.131.433.276.433.381,0,.158-.314.342-.459.42Zm-.631,5.372c-.013.171-.066.276-.42.276a5.465,5.465,0,0,1-.762-.079c.394-.289.8-.657,1.234-1.025C373.805,228.169,373.792,228.445,373.767,228.721Z" transform="translate(-252.619 -219.198)" fill="#1b2f5b"/><path d="M382.958,224.163c0-.591-.8-1.064-1.628-1.064a2.047,2.047,0,0,0-1.826,1.077.034.034,0,0,0,.039.039.828.828,0,0,0,.368-.2,1.379,1.379,0,0,1,.867-.289c.223,0,.644.053.644.355a1.417,1.417,0,0,1-.407.788.548.548,0,0,0-.158.21.035.035,0,0,0,.039.039.57.57,0,0,0,.263-.105,3.087,3.087,0,0,1,.854-.289,3.061,3.061,0,0,0,.669-.171A.422.422,0,0,0,382.958,224.163Z" transform="translate(-254.64 -219.565)" fill="#1b2f5b"/><path d="M396.928,222.823c-.026,0-.052-.013-.092-.013-.2,0-.644.709-.657.736a.226.226,0,0,1-.184.105h-1.733a31.428,31.428,0,0,1-3.323-.184c0,.145.342.617.552.617h.013c.7-.065,1.406-.091,1.983-.1v.42a7.647,7.647,0,0,1-.131,1.13h-.433l-.039-.027a5.8,5.8,0,0,0-1.287-.578.028.028,0,0,0-.026.027c0,.026.013.039.013.079a12.261,12.261,0,0,1,.131,1.576c.013.25.013.552.013.893,0,.933-.026,2.141-.118,3.323v.053a.4.4,0,0,0,.433.407.542.542,0,0,0,.578-.486v-.67h3.021c0,.223-.013.447-.013.657v.013a.393.393,0,0,0,.433.407.557.557,0,0,0,.591-.512v-.013c-.053-1.274-.105-2.772-.105-3.639,0-.735,0-.749.263-.92.158-.1.263-.2.263-.3,0-.3-.946-.815-1.077-.815s-.263.172-.446.42a.274.274,0,0,1-.185.106h-1.589c.21-.263.472-.617.644-.881a.315.315,0,0,1,.249-.183c.237-.027.328-.106.328-.2s-.223-.21-.5-.3h3.218c.21,0,.263-.079.263-.158C397.979,223.559,397.322,222.968,396.928,222.823Zm-1.274,6.961H392.62c0-.644-.013-1.3-.013-1.9h3.06C395.667,228.471,395.667,229.128,395.654,229.784Zm-.21-3.914a.176.176,0,0,1,.2.183c.013.342.026.867.026,1.484h-3.06c0-.486,0-.906.013-1.2.013-.328.026-.314.184-.42l.066-.052Z" transform="translate(-257.239 -219.499)" fill="#1b2f5b"/><path d="M386.37,222.651c.525,0,1.222-.591,1.327-1.734h7.172a.062.062,0,0,1,.066.066,5.126,5.126,0,0,1-.709,1.038.2.2,0,0,0-.039.079.028.028,0,0,0,.026.026.326.326,0,0,0,.092-.026,6.033,6.033,0,0,1,1.931-.617c.394-.013.565-.144.565-.315,0-.433-1.038-1.064-1.235-1.064-.092,0-.368.263-.486.381a.415.415,0,0,1-.2.105h-3.1l.039-.762c.026-.328.039-.328.276-.46.2-.105.3-.21.3-.3,0-.328-1.695-.539-1.734-.539a.035.035,0,0,0-.039.039c0,.013.013.039.026.092a9.205,9.205,0,0,1,.158,1.537v.394h-3.1c-.026-.723-.21-1.025-.25-1.025s-.052.066-.079.2a2.527,2.527,0,0,1-1.182,1.721.9.9,0,0,0-.394.657A.527.527,0,0,0,386.37,222.651Z" transform="translate(-256.072 -218.526)" fill="#1b2f5b"/><path d="M387.454,225.457v.5c-.013,1.13-.118,3.56-.223,4.821v.053a.394.394,0,0,0,.447.394.556.556,0,0,0,.591-.512c0-1.182.013-4.112.092-5.254.026-.276.026-.316.2-.395s.25-.157.25-.236-.105-.171-.539-.264q.433-.511.867-1.1c.145-.2.184-.223.355-.236.276-.013.407-.092.407-.2,0-.276-1.235-.88-1.327-.88-.039,0-.039.039-.053.105a11.985,11.985,0,0,1-3.454,4.82c-.144.105-.211.184-.211.21s0,.013.013.013A7.132,7.132,0,0,0,387.454,225.457Z" transform="translate(-255.855 -219.349)" fill="#1b2f5b"/></g></g></svg>