<svg xmlns="http://www.w3.org/2000/svg" width="320" height="52.953" viewBox="0 0 320 52.953"><g transform="translate(-153.681 -218.526)"><path d="M165.7,253.01a7.343,7.343,0,0,0-4.97,1.929V243.071c-4.524,2.151-7.046,1.78-7.046,2.6s2.967,0,2.967,3.078v21.286c0,.3.148.408.334.408a.477.477,0,0,0,.445-.222l1.187-1.484a9.23,9.23,0,0,0,14.574-7.751C173.188,256.348,169.85,253.01,165.7,253.01Zm-1.743,16.54a3.119,3.119,0,0,1-3.227-3.412V255.977a5.115,5.115,0,0,1,3.338-1.484c2.447,0,4.672,2.151,4.672,8.085C168.737,267.7,166.4,269.55,163.954,269.55Z" transform="translate(0 0.743)" fill="#fff"/><path d="M190.9,263.844c-.482,0-.334.816-1.484,2-1.076,1.114-2.337,1.559-4.45,1.559-3.561,0-6.045-3.3-6.045-6.639v-.408h12.163c0-5.154-3.635-7.639-7.565-7.639a8.723,8.723,0,0,0-8.678,8.641c0,5.341,3.672,8.789,8.493,8.789,5.785,0,7.825-4.784,7.825-5.97A.3.3,0,0,0,190.9,263.844Zm-7.528-10.236c2.447,0,3.634,1.78,3.634,5.044v.816h-8.083C178.958,257.206,180.293,253.608,183.372,253.608Z" transform="translate(0.641 1.035)" fill="#fff"/><path d="M209.447,265.99V243.071c-4.525,2.151-7.047,1.78-7.047,2.6s2.967,0,2.967,3.078v4.561a24.319,24.319,0,0,0-2.967-.3,9.279,9.279,0,0,0-9.494,9.679c0,3.561,1.93,7.751,6.9,7.751a7.39,7.39,0,0,0,5.562-2.93h.074v2.93c5.118-1.854,6.378-1.409,6.378-2.04C211.82,267.7,209.447,267.992,209.447,265.99Zm-4.08.037a3.854,3.854,0,0,1-3.523,2.484c-2.522,0-4.859-2.3-4.859-7.12,0-4.784,2-7.491,5.043-7.491a3.2,3.2,0,0,1,3.338,3.338Z" transform="translate(1.187 0.743)" fill="#fff"/><path d="M244.537,265.766c-.26,0-.334.26-.445.852a2.784,2.784,0,0,1-2.781,2.151c-2.188,0-3.746-1.965-5.6-5.266,1.521-2.782,2.856-5.525,4.377-7.194,1.52-1.706,3.077-.927,3.077-1.78,0-.408-.37-.445-.926-.445-1.3,0-2.6.074-3.857.074-1.3,0-2.6-.074-3.894-.074-.593,0-.926.037-.926.482,0,.816,3.152-.334,3.152,3.523a8.3,8.3,0,0,1-1.447,4.561,21.738,21.738,0,0,0-7.009-6.861c2.374-1.076,4.524-2.67,4.524-5.711a6,6,0,0,0-6.267-5.712,6.7,6.7,0,0,0-6.935,6.6,6.6,6.6,0,0,0,2.411,5.267c-3.635,1.149-5.97,4.227-5.97,7.12,0,4.154,3.411,7.343,8.01,7.343a11.558,11.558,0,0,0,8.788-3.561c2.3,2.819,4.228,3.561,6.491,3.561,4.6,0,5.637-3.227,5.637-4.487C244.945,265.914,244.8,265.766,244.537,265.766Zm-17.8-20.509c2.856,0,4.043,2.374,4.043,4.895,0,2-1.076,4.451-3.227,5.081-2.6-1.706-4.487-3.6-4.487-5.785C223.065,246.852,224.473,245.257,226.736,245.257Zm-.074,23.883c-3.189,0-6.564-2.966-6.564-7.639,0-2.15.631-4,2.337-4.821,4.6,3.522,6.267,4.3,9.865,9.716A7.787,7.787,0,0,1,226.662,269.14Z" transform="translate(1.887 0.782)" fill="#fff"/><path d="M259.03,253.01a7.34,7.34,0,0,0-4.969,1.929V243.071c-4.525,2.151-7.047,1.78-7.047,2.6s2.967,0,2.967,3.078v21.286c0,.3.148.408.334.408a.475.475,0,0,0,.445-.222l1.187-1.484a9.23,9.23,0,0,0,14.574-7.751C266.521,256.348,263.184,253.01,259.03,253.01Zm-1.743,16.54a3.118,3.118,0,0,1-3.226-3.412V255.977a5.112,5.112,0,0,1,3.337-1.484c2.448,0,4.673,2.151,4.673,8.085C262.071,267.7,259.735,269.55,257.287,269.55Z" transform="translate(2.825 0.743)" fill="#fff"/><path d="M279.393,252.718c-2.485,0-4.34,2.411-5.193,4.97h-.073v-4.97c-5.007,2.225-6.936,1.632-6.936,2.225,0,.964,2.967.148,2.967,3v9.421c0,2.41-2.745,1.26-2.745,2.187,0,.3.26.371.742.371,1.558,0,2.819-.074,4.043-.074s2.485.074,4.042.074c.482,0,.742-.074.742-.371,0-.927-2.745.223-2.745-2.187V262.1c0-4.672,1.743-6.416,2.856-6.416,1.409,0,1.3,1.78,3.041,1.78a2.094,2.094,0,0,0,2.188-2.077A2.684,2.684,0,0,0,279.393,252.718Z" transform="translate(3.436 1.035)" fill="#fff"/><path d="M298.723,263.844c-.482,0-.334.816-1.484,2-1.076,1.114-2.336,1.559-4.45,1.559-3.561,0-6.045-3.3-6.045-6.639v-.408h12.163c0-5.154-3.634-7.639-7.565-7.639a8.724,8.724,0,0,0-8.678,8.641c0,5.341,3.672,8.789,8.492,8.789,5.785,0,7.825-4.784,7.825-5.97A.3.3,0,0,0,298.723,263.844Zm-7.528-10.236c2.448,0,3.634,1.78,3.634,5.044v.816h-8.084C286.781,257.206,288.116,253.608,291.195,253.608Z" transform="translate(3.904 1.035)" fill="#fff"/><path d="M317.631,267.329c-.445,0-.779,1.3-2.077,1.3-.519,0-.7-.482-.7-.927V257.095c0-2.782-1.335-4.377-4.524-4.377-4.673,0-9.2,2.893-9.2,5.378a1.741,1.741,0,0,0,1.853,1.816c1.78,0,2.411-.779,2.819-2.929.445-2.262,1.78-3.375,3.561-3.375.927,0,1.408.445,1.408,1.335v4.784c-6.49,2-10.2,3.783-10.2,7.121,0,2.113,1.632,3.3,3.93,3.3,2.485,0,4.6-1.409,6.378-2.67.335,1.521.816,2.67,3.153,2.67,2.077,0,3.969-1.816,3.969-2.522C318,267.4,317.853,267.329,317.631,267.329Zm-6.862-.816a6.531,6.531,0,0,1-4.079,2.151c-1.595,0-2.04-1.743-2.04-3,0-2.633,2.6-3.932,6.119-5.193Z" transform="translate(4.446 1.035)" fill="#fff"/><path d="M336.337,268.364l-5.562-9.755c1.372-1.594,2.41-3.189,4.338-4.079,1.632-.779,2.337-.3,2.337-.89,0-.26-.185-.408-.556-.408-1.484,0-2.707.074-3.893.074s-2.374-.074-3.449-.074c-.445,0-.593.185-.593.445,0,.853,2.708-.148,2.708,1.929,0,1.15-1.929,3.375-6.342,6.3v-18.84c-4.524,2.151-7.046,1.78-7.046,2.6s2.967,0,2.967,3.078v18.914c0,2.41-2.745,1.26-2.745,2.187,0,.3.26.371.742.371,1.558,0,2.819-.074,4.042-.074s2.486.074,4.043.074c.482,0,.742-.074.742-.371,0-.927-2.745.223-2.745-2.187v-4.822l2.6-1.817,2.745,5.3a5.413,5.413,0,0,1,.816,1.965c0,1.595-2.262.556-2.262,1.521,0,.26.223.408.816.408,1.816,0,2.93-.074,4.079-.074,2.263,0,3.041.074,4.154.074.408,0,.7,0,.7-.334C338.97,268.845,337.227,269.958,336.337,268.364Z" transform="translate(4.982 0.743)" fill="#fff"/><path d="M345.376,246.025c0-1.372.3-2.855,1.521-2.855a.909.909,0,0,1,.927,1.037c0,.742-.334,1.187-.334,2a1.663,1.663,0,0,0,1.891,1.817,2.222,2.222,0,0,0,2.151-2.411,3.412,3.412,0,0,0-3.523-3.337c-5.415,0-4.265,10.049-7.9,12.979h1.928v12.424c0,2.41-2.744,1.26-2.744,2.187,0,.3.26.371.741.371,1.558,0,2.819-.074,4.043-.074s2.485.074,4.043.074c.481,0,.741-.074.741-.371,0-.927-2.744.223-2.744-2.187V255.259h3.522l.556-1.929h-4.079C346.043,250.771,345.376,248.844,345.376,246.025Z" transform="translate(5.619 0.719)" fill="#fff"/><path d="M367.371,267.329c-.444,0-.778,1.3-2.076,1.3-.519,0-.7-.482-.7-.927V257.095c0-2.782-1.335-4.377-4.524-4.377-4.673,0-9.2,2.893-9.2,5.378a1.741,1.741,0,0,0,1.854,1.816c1.78,0,2.411-.779,2.819-2.929.445-2.262,1.779-3.375,3.561-3.375.926,0,1.408.445,1.408,1.335v4.784c-6.49,2-10.2,3.783-10.2,7.121,0,2.113,1.631,3.3,3.93,3.3,2.485,0,4.6-1.409,6.378-2.67.334,1.521.816,2.67,3.153,2.67,2.077,0,3.968-1.816,3.968-2.522C367.742,267.4,367.595,267.329,367.371,267.329Zm-6.861-.816a6.534,6.534,0,0,1-4.079,2.151c-1.595,0-2.04-1.743-2.04-3,0-2.633,2.6-3.932,6.119-5.193Z" transform="translate(5.952 1.035)" fill="#fff"/><path d="M372.261,255.5c0-.964.964-1.892,2.708-1.892a4.588,4.588,0,0,1,4.376,2.967c.742,1.558.742,2.039,1.039,2.039.223,0,.3-.073.3-.37V253.9a14.476,14.476,0,0,0-5.562-1.187c-4.3,0-5.9,2.745-5.9,4.71,0,5.97,9.568,4.858,9.568,9.2,0,1.595-1.261,2.633-3.152,2.633-2.448,0-3.932-1.409-5.155-3.672-.927-1.779-.668-2.373-1.113-2.373-.185,0-.26.111-.26.334V269a16.165,16.165,0,0,0,5.823,1.15c4.376,0,6.9-2.3,6.9-5.562C381.829,258.43,372.261,259.393,372.261,255.5Z" transform="translate(6.521 1.035)" fill="#fff"/><path d="M395.533,266.447c-.221,0-.26.333-.7.889a3.136,3.136,0,0,1-2.447,1.261c-1.817,0-2.633-1.224-2.633-3.93V255.1h4.19l.89-1.929h-5.08v-5.562a44.4,44.4,0,0,1-6.823,7.491h2.745v10.718c0,2.67,1.705,4.487,4.969,4.487,3.56,0,5.117-2.744,5.117-3.6A.245.245,0,0,0,395.533,266.447Z" transform="translate(6.939 0.88)" fill="#fff"/><path d="M413.155,267.367V252.718c-5.267,2.151-7.047,1.892-7.047,2.6s2.967.148,2.967,2.856v9.2c0,2.41-2.745,1.26-2.745,2.187,0,.3.26.371.742.371,1.558,0,2.819-.074,4.043-.074s2.485.074,4.042.074c.482,0,.742-.074.742-.371C415.9,268.627,413.155,269.777,413.155,267.367Z" transform="translate(7.641 1.035)" fill="#fff"/><circle cx="2.522" cy="2.522" r="2.522" transform="translate(416.123 246.039)" fill="#fff"/><path d="M432.107,263.844c-.519,0-.927,3.561-5.489,3.561-4.116,0-6.156-3.783-6.156-7.38,0-3.857,1.335-6.417,4.747-6.417,1.779,0,2.632.89,2.632,2.522,0,1-.074,1.558-.074,2.187a2.091,2.091,0,0,0,2.188,2.262c1.408,0,2.114-.853,2.114-2.447,0-2.67-2.6-5.415-6.861-5.415-4.6,0-8.456,3.746-8.456,9.271a8.044,8.044,0,0,0,8.344,8.159,7.2,7.2,0,0,0,7.38-5.97C432.477,263.918,432.33,263.844,432.107,263.844Z" transform="translate(7.963 1.035)" fill="#fff"/><path d="M451.151,267.659v-10.5c0-2.559-1.335-4.154-4.228-4.154-2.41,0-4.153,1-6.786,2.967V243.071c-4.524,2.151-7.045,1.78-7.045,2.6s2.966,0,2.966,3.078v18.914c0,2.41-2.745,1.26-2.745,2.187,0,.3.26.371.742.371,1.558,0,2.819-.074,4.043-.074s2.485.074,4.043.074c.482,0,.742-.074.742-.371,0-.927-2.746.223-2.746-2.187V257.016c.928-.816,2.93-2.3,4.6-2.3a2.292,2.292,0,0,1,2.337,2.411v10.533c0,2.41-2.745,1.26-2.745,2.187,0,.3.26.371.742.371,1.558,0,2.819-.074,4.042-.074s2.485.074,4.043.074c.482,0,.742-.074.742-.371C453.9,268.919,451.151,270.069,451.151,267.659Z" transform="translate(8.458 0.743)" fill="#fff"/><path d="M461.823,267.367V252.718c-5.266,2.151-7.047,1.892-7.047,2.6s2.967.148,2.967,2.856v9.2c0,2.41-2.744,1.26-2.744,2.187,0,.3.26.371.742.371,1.557,0,2.818-.074,4.041-.074s2.486.074,4.043.074c.482,0,.742-.074.742-.371C464.567,268.627,461.823,269.777,461.823,267.367Z" transform="translate(9.114 1.035)" fill="#fff"/><path d="M459.6,250.274a2.522,2.522,0,1,0-2.522-2.521A2.5,2.5,0,0,0,459.6,250.274Z" transform="translate(9.184 0.808)" fill="#fff"/><path d="M226.421,227.141c1.226,4.9,5.079,6.952,5.64,6.952a.287.287,0,0,0,.227-.088c.526-.508,2.12-.841,2.12-1,0-.017-.036-.035-.124-.053a9.807,9.807,0,0,1-7.6-6.112h6.323c.3,0,.384-.105.384-.211,0-.4-1.209-1.365-1.663-1.524a.62.62,0,0,0-.193-.052c-.175,0-.806.8-1.033,1.19a.332.332,0,0,1-.28.158h-3.678a11.339,11.339,0,0,0,.105-1.348c0-.455.018-1.261.018-2.1H231.1c.3,0,.385-.105.385-.21,0-.3-1.016-1.314-1.611-1.541a.222.222,0,0,0-.105-.018c-.245,0-.893.893-1.068,1.173a.326.326,0,0,1-.263.158h-1.769c0-2.662.018-2.7.4-2.855.245-.105.4-.263.4-.4,0-.473-2.154-.666-2.242-.666-.069,0-.105,0-.105.07,0,.018.018.035.018.07a12.8,12.8,0,0,1,.175,2.329v1.454c-1.244-.018-3.484-.088-5.008-.28,0,.228.508.911.823.911h.018c1.33-.14,3.083-.175,4.167-.193V224.9a10.522,10.522,0,0,1-.123,1.505h-.736c-1,0-4.1-.07-5.884-.28,0,.229.56.912.893.912h.018c1.559-.159,3.922-.193,4.886-.193h.736a9.489,9.489,0,0,1-6.76,7.355c-.245.07-.438.175-.438.245,0,.018.053.035.158.035C218.593,234.479,225.037,233.62,226.421,227.141Z" transform="translate(1.944 0.002)" fill="#fff"/><path d="M239.311,230.1a5.413,5.413,0,0,1,.736.911c.263.42.543.6.788.6.333,0,.6-.35.6-.788,0-.631-.56-1.226-1.681-1.769a20.681,20.681,0,0,0,1.016-4.675c.035-.368.228-.333.385-.42s.332-.193.332-.368c0-.42-1.26-1.1-1.348-1.1-.123,0-.42.333-.49.42-.053.07-.123.175-.228.175l-.981.018c.193-1.138.333-2.137.42-2.68.07-.4.07-.455.4-.613.228-.105.4-.245.4-.385,0-.508-1.979-.753-2.014-.753-.053,0-.053.018-.053.088v.105c.018.175.035.385.035.6a29.936,29.936,0,0,1-.35,3.626,20.171,20.171,0,0,1-2.137-.175c0,.228.49.858.736.858h.018c.49-.07.911-.105,1.3-.14a46.062,46.062,0,0,1-1.3,5.831.638.638,0,0,0-.035.245c0,.315.245.455.525.455a.883.883,0,0,0,.858-.613l.158-.718a4.485,4.485,0,0,1,1.1.6,8.361,8.361,0,0,1-3.363,4.449c-.3.193-.455.315-.455.385,0,.018.018.035.053.035A7.53,7.53,0,0,0,239.311,230.1Zm-1.839-1.611c.28-1.4.6-3.274.876-4.921l1.1-.017c.088,0,.14.035.14.158a25.324,25.324,0,0,1-.858,4.973A6.281,6.281,0,0,0,237.472,228.487Z" transform="translate(2.452 0.004)" fill="#fff"/><path d="M246.73,223.452a44.259,44.259,0,0,1-4.9-.245c0,.245.543.823.824.823h.016c1.524-.123,2.855-.14,4.063-.14h.963c0,.088-.017.158-.017.228v.018a.505.505,0,0,0,.56.525.689.689,0,0,0,.736-.631V224c-.053-.718-.123-2.014-.123-2.68s0-.683.333-.893c.21-.14.368-.263.368-.42,0-.438-1.314-1.051-1.454-1.051a.243.243,0,0,0-.175.088,5.146,5.146,0,0,0-.35.455.246.246,0,0,1-.21.105h-.7c-.6,0-3.274-.018-4.746-.21,0,.245.49.788.789.788h.018c1.242-.14,3.379-.14,3.922-.14h.823a.211.211,0,0,1,.228.228c.018.245.018.683.018,1.209h-.806a39.613,39.613,0,0,1-4.64-.228,1.26,1.26,0,0,0,.823.806h.018c1.523-.123,2.591-.14,3.8-.14h.806c0,.525-.018,1.068-.018,1.541Z" transform="translate(2.668 0.013)" fill="#fff"/><path d="M247.262,232.712a.285.285,0,0,0,.315.245,1.58,1.58,0,0,0,1.664-1.576v-.035c0-.263-.035-.508-.035-.771-.018-.263-.018-.56-.018-.841v-.315c.018-.49.035-.42.4-.648.193-.123.28-.228.28-.35,0-.263-.683-.7-.981-.876a3.78,3.78,0,0,1,1.611-.928c.49-.052.683-.227.683-.455,0-.419-1.191-1.365-1.436-1.365-.053,0-.193.017-.578.473a.407.407,0,0,1-.263.122h-6.55c-.123-.77-.315-1.1-.4-1.1-.052,0-.069.105-.088.28a2.885,2.885,0,0,1-1.085,2.066,1,1,0,0,0-.333.7.691.691,0,0,0,.7.7c.368,0,1.244-.473,1.244-2.1v-.105h6.514c.053,0,.123.018.123.105a8.849,8.849,0,0,1-.473,1.453c-.018,0-.053-.018-.07-.018-.088,0-.21.071-.473.508a.247.247,0,0,1-.21.14h-1.576c0-.105.018-.228.018-.333.018-.542.07-.473.315-.63.158-.088.28-.21.28-.334,0-.314-1.471-.542-1.822-.542-.035,0-.035.018-.035.035a.389.389,0,0,0,.018.122,10.867,10.867,0,0,1,.123,1.681h-1.3l-.07-.053a6.651,6.651,0,0,0-1.558-.717c-.036,0-.036.016-.036.052v.07a13.266,13.266,0,0,1,.158,1.8c0,.736-.016,1.979-.122,3.345v.07a.487.487,0,0,0,.507.543.7.7,0,0,0,.719-.648c0-.56-.018-1.191-.018-1.786,0-.613.018-1.191.034-1.611.035-.438-.016-.385.264-.543l.088-.07h1.33c0,1.349-.053,3.048-.14,5.1v.053a.539.539,0,0,0,.56.613.8.8,0,0,0,.771-.718V233.5l-.07-1.822A2.622,2.622,0,0,1,247.262,232.712Zm-1.016-1.191c-.018-.736-.018-1.454-.018-2.172v-.876h1.611c.088,0,.245.018.245.263.018.543.018.946.018,1.366,0,1.331,0,1.594-.736,1.594a4.533,4.533,0,0,1-.981-.14A.541.541,0,0,0,246.246,231.522Z" transform="translate(2.627 0.174)" fill="#fff"/><path d="M261.345,224.259c0,.035.124.1.281.193a5.477,5.477,0,0,1,1.471,1.191.686.686,0,0,0,.473.263.556.556,0,0,0,.524-.6c0-.577-.7-1.19-2.066-1.19C261.994,224.119,261.345,224.119,261.345,224.259Z" transform="translate(3.259 0.169)" fill="#fff"/><path d="M254.186,225.162a2.462,2.462,0,0,0,1.138-.245,22.031,22.031,0,0,1,3.713-1.681c.018,0,.018,0,.018.018s-.088.088-.175.21a9.46,9.46,0,0,0-1.646,5.516c0,3.363,1.909,4.5,3.731,4.5.613,0,2.207-.158,2.207-1.051a.814.814,0,0,0-.911-.718,1.707,1.707,0,0,0-.49.088,3,3,0,0,1-1,.175c-.438,0-2.715-.105-2.715-3.678,0-2.188.893-4.745,2.049-5.393a5.94,5.94,0,0,1,2.539-.49,5.794,5.794,0,0,1,.963.07,3.436,3.436,0,0,0,.4.035c.666,0,.962-.315.962-.648,0-.508-.682-.963-1.978-.963h-.088a4.555,4.555,0,0,0-1.436.368,59.606,59.606,0,0,0-6.5,2.627,3.162,3.162,0,0,1-1.138.21,3.762,3.762,0,0,1-.789-.088,1.522,1.522,0,0,0-.349-.07c-.088,0-.158.035-.158.21C252.541,224.812,253.347,225.162,254.186,225.162Z" transform="translate(2.993 0.072)" fill="#fff"/><path d="M263.1,223.478c0,.053.124.123.28.193a5.48,5.48,0,0,1,1.524,1.156.658.658,0,0,0,.473.245.555.555,0,0,0,.508-.6c0-.525-.577-1.156-2-1.156C263.394,223.32,263.1,223.425,263.1,223.478Z" transform="translate(3.312 0.145)" fill="#fff"/><path d="M274.527,220.639c.141.525.455.736.753.736a.8.8,0,0,0,.736-.823c0-1.156-2-1.822-2.469-1.822-.036,0-.054.018-.054.035,0,.035.054.088.141.21A6.2,6.2,0,0,1,274.527,220.639Z" transform="translate(3.627 0.006)" fill="#fff"/><path d="M271.646,221.008a.868.868,0,0,0,.771.631.778.778,0,0,0,.717-.806c0-1-1.629-1.576-2.661-1.576-.07,0-.105,0-.105.035s.053.088.158.193A6.8,6.8,0,0,1,271.646,221.008Z" transform="translate(3.532 0.022)" fill="#fff"/><path d="M272.037,229.478c-.018,0-.018-.018-.035-.018a7.061,7.061,0,0,0-1.769-.823.046.046,0,0,0-.053.053.76.76,0,0,1,.018.088,10.979,10.979,0,0,1,.175,1.874,25.354,25.354,0,0,1-.14,3.013v.07c0,.368.28.525.613.525.384,0,.806-.21.806-.613V233.1h7.268c0,.158-.018.315-.018.473v.018a.552.552,0,0,0,.613.543.745.745,0,0,0,.788-.631v-.053c-.07-.928-.14-1.594-.14-2.277,0-.718.017-.718.35-.928.21-.123.315-.228.315-.35,0-.4-1.4-1.121-1.489-1.121-.035,0-.105,0-.631.6a.287.287,0,0,1-.245.105H274.7c.28-.35.578-.806.823-1.173a.513.513,0,0,1,.35-.263c.3-.07.42-.175.42-.263,0-.07-.053-.139-.158-.175l-.158-.051h1.664v.157a.532.532,0,0,0,.578.543.705.705,0,0,0,.753-.648v-.035c-.07-.806-.14-1.242-.14-1.664,0-.594.035-.647.333-.8.21-.123.315-.228.315-.35,0-.264-1.156-1.1-1.4-1.1-.105,0-.158.053-.631.6a.276.276,0,0,1-.228.123h-4.045c-.018,0-.018-.035-.036-.035a7.206,7.206,0,0,0-1.7-.823c-.035,0-.053.018-.053.07a.759.759,0,0,1,.018.088,12.943,12.943,0,0,1,.175,1.855,17.908,17.908,0,0,1-.14,2.259v.07a.51.51,0,0,0,.578.525.7.7,0,0,0,.771-.613v-.209h1.54c.018.209.018.437.018.665a8.042,8.042,0,0,1-.139,1.261Zm.736-2.382c0-.28-.019-.543-.019-.787,0-1.314,0-1.314.385-1.506h4.291c.158,0,.21.088.21.228.018.42.035.806.035,1.191,0,.28-.017.56-.017.875Zm5.919,2.82a.2.2,0,0,1,.228.228c.017.333.017.683.017,1.033,0,.473,0,.963-.017,1.471h-7.285c0-.385-.019-.736-.019-1.086,0-1.384,0-1.4.3-1.576l.105-.07Z" transform="translate(3.526 0.151)" fill="#fff"/><path d="M281.373,221.778a.276.276,0,0,0-.14.053,3.971,3.971,0,0,0-.49.455.554.554,0,0,1-.263.14h-3.135c.666-.56,1.681-1.594,2.084-2.014a.482.482,0,0,1,.455-.21c.35,0,.56-.105.56-.245,0-.4-1.822-1.244-2.014-1.244-.035,0-.035.035-.053.158a10.765,10.765,0,0,1-1.419,3.555h-6.584c-.018-.42-.193-1.384-.35-1.384-.035,0-.07.088-.105.28a3.394,3.394,0,0,1-1.576,2.329,1.174,1.174,0,0,0-.543.875.719.719,0,0,0,.771.684c.7,0,1.646-.736,1.786-2.347H280.5c.053,0,.105.018.105.088a9.659,9.659,0,0,1-.893,1.664.443.443,0,0,0-.053.123c0,.035,0,.035.035.035a.458.458,0,0,0,.14-.054,8.072,8.072,0,0,1,2.452-1.085c.543-.018.753-.175.753-.4C283.037,222.689,281.688,221.778,281.373,221.778Z" transform="translate(3.454 0.006)" fill="#fff"/><path d="M287.335,223.8a4.154,4.154,0,0,0,.629-.053v1.978a1.631,1.631,0,0,0-1-.367c-.753,0-1.261.559-1.261,1.785,0,.982.368,2.855,1.488,2.855a4.469,4.469,0,0,0-.139,1.068c0,2.47,2.784,2.662,3.519,2.662,3.205,0,4.5-2.224,4.5-3.258a13.411,13.411,0,0,0-.544-2.171,14.228,14.228,0,0,1-.227-2.277c0-.648.07-2.154,1.209-2.154a1.18,1.18,0,0,1,1.1,1.016c0,.49-.7.927-1.505,1.383-.175.088-.28.193-.28.264,0,.034.035.051.123.051a1.368,1.368,0,0,0,.3-.051,4.482,4.482,0,0,1,1.121-.123,4.992,4.992,0,0,1,.543.035.829.829,0,0,0,.193.016.915.915,0,0,0,.927-1.015,2.372,2.372,0,0,0-2.365-2.154c-1.715,0-1.908,2.032-1.908,3.484,0,.772.07,1.7.14,2.8v.193c0,1.962-2.067,2.767-3.608,2.767-.981,0-2.575-.368-2.575-1.734a3.79,3.79,0,0,1,.6-1.769,3.2,3.2,0,0,0,.455-1.575,2.211,2.211,0,0,0-.21-.963c.035-.982.089-2.015.193-2.925.666-.175,2.417-.648,2.417-1.594,0-.49-.525-.49-1-.49a3.323,3.323,0,0,1-1.051-.175v-.07a1.156,1.156,0,0,0-1.1-1.1.526.526,0,0,0-.543.508c0,.105.105.175.211.28a1.135,1.135,0,0,1,.314.823v.123c-.017.245-.017.508-.017.788-.211.018-.421.035-.648.035a2.4,2.4,0,0,1-1.436-.385,1.241,1.241,0,0,0-.525-.28c-.053,0-.071.035-.071.088A2.26,2.26,0,0,0,287.335,223.8Zm.524,4.045c-.088.473-.244,1.051-.647,1.051-.648,0-1-1.314-1-1.839,0-.21.053-1,.594-1,.455,0,1.051.841,1.051,1.715Zm1.1-5.656c.053-.245.105-.455.14-.666.736.42.736.438.736.49,0,.193-.613.385-.928.473Z" transform="translate(3.984 0.049)" fill="#fff"/><path d="M306.368,228.352c0,1.681-.018,3.205-.035,3.626-.035.648-.333.893-1.156.893a13.592,13.592,0,0,1-2.207-.263.855.855,0,0,0-.193-.018c-.034,0-.07,0-.07.018,0,.158,1.857.928,2.172,1.454a.441.441,0,0,0,.438.263,2.233,2.233,0,0,0,2.364-2.119v-.07c-.088-1.927-.088-2.032-.088-3.783h6.725c.3,0,.385-.088.385-.192,0-.281-1.261-1.665-1.8-1.665-.3,0-.963,1.068-1.086,1.261a.363.363,0,0,1-.3.158h-3.923v-3.1h5.464c.3,0,.368-.106.368-.21a3.106,3.106,0,0,0-1.733-1.541c-.193,0-.719.7-1.033,1.173a.392.392,0,0,1-.3.158h-2.767c0-2.452.018-2.575.245-2.662.21-.07.368-.193.368-.315,0-.193-.4-.28-.525-.3,1.156-.14,2.171-.3,2.941-.455a.264.264,0,0,1,.124-.018,1.505,1.505,0,0,1,.3.053,1.034,1.034,0,0,0,.368.07c.175,0,.28-.053.28-.193,0-.455-1.4-1.524-1.4-1.524-.018,0-.054.035-.123.088-1.1.876-6.848,1.927-9.615,2.189-.263.018-.368.07-.368.14s.193.14.437.14c1.611,0,3.678-.123,5.6-.315.123.718.123,2.977.123,3.1H306.1c-.981,0-4.046-.07-5.8-.28,0,.228.525.893.857.893h.018c1.524-.158,3.888-.193,4.834-.193h.333c0,.911.018,2.032.018,3.1h-1.244c-1.016,0-4.326-.07-6.129-.28,0,.229.489.911.806.911h.018c1.558-.158,4.238-.193,5.218-.193Z" transform="translate(4.399 0.016)" fill="#fff"/><path d="M328,222.923a.694.694,0,0,0,.473.263.557.557,0,0,0,.526-.6c0-.578-.7-1.191-2.067-1.191-.035,0-.683,0-.683.14,0,.035.123.105.28.193A5.479,5.479,0,0,1,328,222.923Z" transform="translate(5.224 0.087)" fill="#fff"/><path d="M317.494,227.137a3.165,3.165,0,0,0,2.189-1.033,7.85,7.85,0,0,1,5.288-2.609,2.846,2.846,0,0,1,3.118,2.609c0,2.033-2.487,4.711-8.179,5.6-.524.088-.892.175-.892.245s.28.105.98.105h.088c6.1,0,9.282-2.907,9.282-5.5,0-2.031-2.048-3.8-4.605-3.8a10.769,10.769,0,0,0-5.464,1.927,8.4,8.4,0,0,1-3.03,1.3c-.245.016-.438.034-.438.158A1.669,1.669,0,0,0,317.494,227.137Z" transform="translate(4.908 0.128)" fill="#fff"/><path d="M328.264,220.95a5.48,5.48,0,0,1,1.524,1.156.655.655,0,0,0,.472.245.554.554,0,0,0,.508-.6c0-.788-1.068-1.138-1.962-1.138-.419,0-.822.07-.822.158C327.984,220.827,328.107,220.88,328.264,220.95Z" transform="translate(5.276 0.063)" fill="#fff"/><path d="M336.923,233.144c.036.613.334.876.648.876.4,0,.858-.455.858-1.191,0-2.014-2.206-4.536-3.677-6.094a1.073,1.073,0,0,1-.315-.753,1.583,1.583,0,0,1,.193-.7c.613-1.12,2.347-2.4,3.205-3.379a1.807,1.807,0,0,0,.507-1.138c0-.963-1.209-1.454-1.489-1.454-.123,0-.174.035-.174.14a.688.688,0,0,0,.174.35.551.551,0,0,1,.124.368,2.6,2.6,0,0,1-.526,1.226c-.612.893-1.943,2.662-2.381,3.5a2.479,2.479,0,0,0-.333,1.138,1.783,1.783,0,0,0,.473,1.191A12.342,12.342,0,0,1,336.923,233.144Z" transform="translate(5.45 0.024)" fill="#fff"/><path d="M344.718,225.9c0,1.4.7,2.731,1.191,2.731.35,0,.648-.438.648-.962a1.412,1.412,0,0,0-.105-.526,4.942,4.942,0,0,1-.526-2.171c0-1.716.912-3.1,1.84-3.1,1.085,0,1.838,2.032,1.838,4.238a9.873,9.873,0,0,1-3.922,7.952c-.385.263-.543.42-.543.473,0,.018.018.018.034.018.684,0,5.78-2.732,5.78-8.53,0-2.328-.928-4.973-2.785-4.973-.787,0-1.594.578-2.083,1.874-.071.193-.123.28-.141.28a.061.061,0,0,1-.017-.035,1.175,1.175,0,0,1,.054-.245,10.581,10.581,0,0,0,.578-2.557c0-1.051-.648-1.4-1.033-1.4a.616.616,0,0,0-.56.4c0,.105.14.193.28.263.209.105.28.438.28.858a13.744,13.744,0,0,1-.315,2.259A16.807,16.807,0,0,0,344.718,225.9Z" transform="translate(5.783 0.013)" fill="#fff"/><path d="M362.2,221.025a7.1,7.1,0,0,0-7.075,6.865,2.883,2.883,0,0,0,.42,1.629c.682,1,1.033,2.242,1.962,2.242,1.663,0,4.57-4.011,4.57-7.67a3.254,3.254,0,0,0-.718-2.4c.193-.018.385-.035.578-.035h.07A4.8,4.8,0,0,1,367,226.595c0,3.414-2.75,5.6-5.815,6.444-.525.14-.788.263-.788.35,0,.035.07.053.245.053a10.043,10.043,0,0,0,5.727-2.329,6.141,6.141,0,0,0,1.962-4.448C368.334,223.775,366.215,221.025,362.2,221.025Zm-4.571,9.054c-.752,0-1.54-1.173-1.54-2.715a5.914,5.914,0,0,1,4.255-5.481l.07-.018a.542.542,0,0,0,.14-.035.484.484,0,0,1,.158-.018c.525,0,.631.718.631,1.506C361.346,226.419,358.841,230.079,357.633,230.079Z" transform="translate(6.098 0.076)" fill="#fff"/><path d="M380,227.124a8.578,8.578,0,0,0-4.309,1.505c-.018-1.032-.053-2.1-.053-3.117,1.419-.753,1.892-1.157,1.892-1.716a.509.509,0,0,0-.578-.508h-.123a4.694,4.694,0,0,1-1.138-.193,2.847,2.847,0,0,0,.017-.368c0-.876-.946-1.244-1.419-1.244a.828.828,0,0,0-.875.613c0,.105.122.175.438.175.735,0,.84.525.981,2.54a4.159,4.159,0,0,1-2,.525,3.731,3.731,0,0,1-1.244-.193.817.817,0,0,0-.28-.088c-.053,0-.088.035-.088.139,0,1.156,1.173,1.244,1.576,1.244a4.647,4.647,0,0,0,2.083-.542c.019.717.053,1.488.053,2.258,0,.315,0,.648-.016.963-2.418,1.506-2.907,1.664-3.1,1.664a.488.488,0,0,1-.21-.07.457.457,0,0,0-.193-.053c-.35,0-.806.771-.806,1.086,0,.28.175.49.613.49a3.19,3.19,0,0,0,1.716-.648,2.41,2.41,0,0,1,1.435.876.749.749,0,0,0,.6.455c.229,0,.771-.158.771-1.454v-.105l-.035-1.857a6.826,6.826,0,0,1,4.011-1.891c1.033,0,2.067.454,2.067,1.418,0,1.314-1.506,2.119-2.557,2.119a1.18,1.18,0,0,1-1.261-1.331,2.956,2.956,0,0,1,.123-.841,2.172,2.172,0,0,0,.105-.6c0-.053,0-.088-.035-.088a4.019,4.019,0,0,0-.806,2.277,1.667,1.667,0,0,0,1.839,1.769c1.594,0,3.731-1.349,3.731-3.135C382.926,228.156,382.1,227.124,380,227.124Zm-4.343-3.153c0-.263.016-.49.034-.666.333.175.578.368.578.508,0,.21-.419.455-.612.56Zm-.841,7.162c-.018.228-.088.368-.56.368a7.287,7.287,0,0,1-1.016-.105c.525-.385,1.067-.876,1.645-1.366C374.869,230.4,374.852,230.766,374.818,231.134Z" transform="translate(6.567 0.09)" fill="#fff"/><path d="M384.109,224.518c0-.788-1.067-1.419-2.171-1.419a2.73,2.73,0,0,0-2.434,1.436.046.046,0,0,0,.052.052,1.1,1.1,0,0,0,.49-.262,1.839,1.839,0,0,1,1.156-.385c.3,0,.858.07.858.473a1.889,1.889,0,0,1-.543,1.051.73.73,0,0,0-.21.28.046.046,0,0,0,.052.053.76.76,0,0,0,.35-.14,4.117,4.117,0,0,1,1.138-.385,4.08,4.08,0,0,0,.892-.228A.562.562,0,0,0,384.109,224.518Z" transform="translate(6.836 0.138)" fill="#fff"/><path d="M398.925,222.828c-.035,0-.07-.018-.123-.018-.263,0-.858.946-.876.981a.3.3,0,0,1-.245.14H395.37a41.907,41.907,0,0,1-4.431-.245c0,.193.455.822.736.822h.018c.928-.087,1.874-.122,2.645-.139v.56a10.2,10.2,0,0,1-.175,1.506h-.578l-.053-.036a7.732,7.732,0,0,0-1.716-.771.038.038,0,0,0-.035.036c0,.035.018.052.018.105a16.345,16.345,0,0,1,.175,2.1c.018.333.018.737.018,1.191,0,1.244-.035,2.855-.158,4.431v.07a.532.532,0,0,0,.578.543.722.722,0,0,0,.771-.648v-.893h4.027c0,.3-.017.6-.017.876v.018a.524.524,0,0,0,.578.543.743.743,0,0,0,.788-.683V233.3c-.07-1.7-.14-3.7-.14-4.852,0-.98,0-1,.35-1.226.21-.139.35-.263.35-.4,0-.4-1.261-1.087-1.436-1.087s-.35.229-.594.56a.365.365,0,0,1-.246.141h-2.118c.28-.351.629-.823.858-1.174a.42.42,0,0,1,.332-.244c.316-.036.438-.141.438-.263,0-.14-.3-.28-.665-.4h4.29c.28,0,.35-.105.35-.21C400.326,223.808,399.45,223.02,398.925,222.828Zm-1.7,9.282h-4.045c0-.858-.018-1.734-.018-2.54h4.08C397.243,230.358,397.243,231.233,397.226,232.109Zm-.28-5.218a.234.234,0,0,1,.263.244c.018.455.035,1.156.035,1.979h-4.08c0-.648,0-1.208.018-1.594.017-.437.035-.419.245-.56l.088-.069Z" transform="translate(7.182 0.13)" fill="#fff"/><path d="M386.558,224.026c.7,0,1.629-.788,1.769-2.312h9.562a.083.083,0,0,1,.088.088,6.83,6.83,0,0,1-.946,1.384.27.27,0,0,0-.052.105.038.038,0,0,0,.035.035.435.435,0,0,0,.123-.035,8.043,8.043,0,0,1,2.575-.823c.525-.018.753-.193.753-.42,0-.578-1.384-1.419-1.646-1.419-.123,0-.49.35-.648.508a.554.554,0,0,1-.263.14h-4.132l.053-1.016c.035-.438.053-.438.368-.613.262-.14.4-.28.4-.4,0-.438-2.259-.718-2.312-.718a.046.046,0,0,0-.052.053c0,.018.017.053.035.123a12.285,12.285,0,0,1,.21,2.049v.525h-4.133c-.035-.963-.28-1.366-.333-1.366q-.053,0-.105.263a3.37,3.37,0,0,1-1.576,2.294,1.2,1.2,0,0,0-.525.876A.7.7,0,0,0,386.558,224.026Z" transform="translate(7.026)" fill="#fff"/><path d="M388.321,226.561v.665c-.018,1.506-.158,4.746-.3,6.428v.07a.525.525,0,0,0,.6.525.741.741,0,0,0,.788-.683c0-1.576.018-5.482.123-7,.035-.368.035-.421.263-.526s.333-.209.333-.314c0-.123-.14-.228-.718-.351q.578-.682,1.156-1.47c.193-.263.245-.3.473-.315.368-.018.543-.123.543-.263,0-.368-1.646-1.173-1.769-1.173-.053,0-.053.053-.07.14-.315,1.506-2.7,4.956-4.605,6.427-.193.14-.281.245-.281.28,0,.018,0,.018.018.018A9.509,9.509,0,0,0,388.321,226.561Z" transform="translate(6.998 0.11)" fill="#fff"/></g></svg>