<svg xmlns="http://www.w3.org/2000/svg" width="181.288" height="30" viewBox="0 0 181.288 30"><g transform="translate(-153.679 -218.526)"><g transform="translate(153.679 232.391)"><path d="M160.488,248.7a4.16,4.16,0,0,0-2.816,1.093v-6.723c-2.563,1.219-3.992,1.009-3.992,1.471s1.681,0,1.681,1.744v12.059c0,.168.084.231.189.231a.27.27,0,0,0,.252-.126l.672-.84a5.229,5.229,0,0,0,8.257-4.391A4.3,4.3,0,0,0,160.488,248.7Zm-.988,9.37a1.767,1.767,0,0,1-1.828-1.933v-5.756a2.9,2.9,0,0,1,1.891-.84c1.386,0,2.647,1.219,2.647,4.58C162.211,257.022,160.888,258.072,159.5,258.072Z" transform="translate(-153.681 -242.61)" fill="#fff"/><path d="M183.939,259.021c-.273,0-.189.462-.84,1.134a3.134,3.134,0,0,1-2.521.883,3.638,3.638,0,0,1-3.424-3.761v-.231h6.891a4.073,4.073,0,0,0-4.286-4.328,4.942,4.942,0,0,0-4.916,4.9,4.69,4.69,0,0,0,4.811,4.979,4.3,4.3,0,0,0,4.433-3.382A.17.17,0,0,0,183.939,259.021Zm-4.265-5.8c1.386,0,2.059,1.009,2.059,2.858v.462h-4.579C177.174,255.261,177.93,253.222,179.674,253.222Z" transform="translate(-162.491 -246.626)" fill="#fff"/><path d="M202.277,256.055V243.071c-2.564,1.219-3.992,1.009-3.992,1.471s1.681,0,1.681,1.744v2.584a13.769,13.769,0,0,0-1.681-.168,5.257,5.257,0,0,0-5.379,5.484c0,2.017,1.093,4.391,3.908,4.391a4.187,4.187,0,0,0,3.151-1.66h.042v1.66c2.9-1.051,3.613-.8,3.613-1.156C203.621,257.022,202.277,257.19,202.277,256.055Zm-2.311.021a2.184,2.184,0,0,1-2,1.407c-1.429,0-2.753-1.3-2.753-4.034,0-2.71,1.135-4.244,2.857-4.244a1.814,1.814,0,0,1,1.891,1.891Z" transform="translate(-170.011 -242.61)" fill="#fff"/><path d="M232.175,256.49c-.147,0-.189.147-.252.483a1.577,1.577,0,0,1-1.575,1.219c-1.24,0-2.122-1.113-3.173-2.983a23.055,23.055,0,0,1,2.479-4.076c.861-.967,1.743-.525,1.743-1.009,0-.231-.21-.252-.525-.252-.735,0-1.471.042-2.185.042-.735,0-1.471-.042-2.206-.042-.336,0-.525.021-.525.273,0,.462,1.785-.189,1.785,2a4.7,4.7,0,0,1-.819,2.584,12.315,12.315,0,0,0-3.971-3.887c1.345-.609,2.563-1.513,2.563-3.235a3.4,3.4,0,0,0-3.55-3.236,3.794,3.794,0,0,0-3.929,3.74,3.74,3.74,0,0,0,1.366,2.984,4.567,4.567,0,0,0-3.382,4.034,4.265,4.265,0,0,0,4.538,4.16,6.548,6.548,0,0,0,4.979-2.017c1.3,1.6,2.4,2.017,3.677,2.017,2.6,0,3.193-1.828,3.193-2.542C232.406,256.574,232.322,256.49,232.175,256.49ZM222.09,244.871c1.618,0,2.29,1.345,2.29,2.773a2.953,2.953,0,0,1-1.828,2.879c-1.47-.967-2.542-2.038-2.542-3.277C220.011,245.775,220.809,244.871,222.09,244.871Zm-.042,13.53a4.057,4.057,0,0,1-3.719-4.328,2.776,2.776,0,0,1,1.324-2.731c2.6,2,3.551,2.437,5.589,5.5A4.412,4.412,0,0,1,222.048,258.4Z" transform="translate(-179.634 -243.149)" fill="#fff"/><path d="M253.821,248.7a4.158,4.158,0,0,0-2.815,1.093v-6.723c-2.563,1.219-3.992,1.009-3.992,1.471s1.681,0,1.681,1.744v12.059c0,.168.084.231.189.231a.269.269,0,0,0,.252-.126l.672-.84a5.229,5.229,0,0,0,8.257-4.391A4.3,4.3,0,0,0,253.821,248.7Zm-.988,9.37a1.766,1.766,0,0,1-1.827-1.933v-5.756a2.9,2.9,0,0,1,1.89-.84c1.387,0,2.648,1.219,2.648,4.58C255.544,257.022,254.221,258.072,252.834,258.072Z" transform="translate(-192.538 -242.61)" fill="#fff"/><path d="M274.1,252.718c-1.408,0-2.458,1.366-2.942,2.816h-.041v-2.816c-2.837,1.261-3.929.925-3.929,1.261,0,.546,1.681.084,1.681,1.7v5.337c0,1.365-1.555.714-1.555,1.239,0,.168.147.21.42.21.883,0,1.6-.042,2.29-.042s1.408.042,2.29.042c.273,0,.42-.042.42-.21,0-.525-1.555.126-1.555-1.239v-2.984c0-2.647.988-3.635,1.618-3.635.8,0,.735,1.009,1.723,1.009a1.187,1.187,0,0,0,1.24-1.177A1.521,1.521,0,0,0,274.1,252.718Z" transform="translate(-200.939 -246.626)" fill="#fff"/><path d="M291.762,259.021c-.273,0-.189.462-.841,1.134a3.133,3.133,0,0,1-2.521.883,3.638,3.638,0,0,1-3.424-3.761v-.231h6.891a4.073,4.073,0,0,0-4.286-4.328,4.942,4.942,0,0,0-4.916,4.9,4.69,4.69,0,0,0,4.811,4.979,4.3,4.3,0,0,0,4.433-3.382A.17.17,0,0,0,291.762,259.021Zm-4.265-5.8c1.387,0,2.059,1.009,2.059,2.858v.462h-4.58C285,255.261,285.753,253.222,287.5,253.222Z" transform="translate(-207.38 -246.626)" fill="#fff"/><path d="M310.236,261c-.252,0-.441.735-1.177.735-.294,0-.4-.273-.4-.525V255.2c0-1.576-.757-2.48-2.563-2.48-2.648,0-5.21,1.639-5.21,3.047a.986.986,0,0,0,1.05,1.029c1.009,0,1.366-.441,1.6-1.659a2.037,2.037,0,0,1,2.017-1.912c.525,0,.8.252.8.756v2.71c-3.677,1.135-5.777,2.143-5.777,4.034,0,1.2.925,1.869,2.227,1.869a6.44,6.44,0,0,0,3.614-1.513c.19.861.462,1.513,1.786,1.513a2.523,2.523,0,0,0,2.248-1.429C310.447,261.038,310.362,261,310.236,261Zm-3.887-.462a3.7,3.7,0,0,1-2.311,1.219c-.9,0-1.156-.988-1.156-1.7,0-1.492,1.471-2.227,3.466-2.942Z" transform="translate(-214.835 -246.626)" fill="#fff"/><path d="M328.508,257.4l-3.151-5.526a7.587,7.587,0,0,1,2.458-2.311c.925-.441,1.324-.168,1.324-.5,0-.147-.105-.231-.315-.231-.84,0-1.533.042-2.206.042s-1.345-.042-1.954-.042c-.252,0-.336.105-.336.252,0,.483,1.534-.084,1.534,1.093,0,.651-1.093,1.912-3.593,3.571V243.071c-2.563,1.219-3.992,1.009-3.992,1.471s1.681,0,1.681,1.744V257c0,1.365-1.555.714-1.555,1.239,0,.168.147.21.42.21.883,0,1.6-.042,2.29-.042s1.408.042,2.29.042c.273,0,.42-.042.42-.21,0-.525-1.555.126-1.555-1.239v-2.732l1.471-1.03,1.555,3a3.066,3.066,0,0,1,.462,1.113c0,.9-1.282.315-1.282.861,0,.147.126.231.462.231,1.029,0,1.66-.042,2.311-.042,1.282,0,1.723.042,2.353.042.231,0,.4,0,.4-.189C330,257.673,329.012,258.3,328.508,257.4Z" transform="translate(-222.206 -242.61)" fill="#fff"/><path d="M342.74,244.4c0-.777.168-1.617.861-1.617a.515.515,0,0,1,.525.588c0,.42-.189.672-.189,1.135a.942.942,0,0,0,1.071,1.03,1.259,1.259,0,0,0,1.219-1.366,1.933,1.933,0,0,0-2-1.891c-3.068,0-2.416,5.693-4.475,7.353h1.092v7.039c0,1.365-1.554.714-1.554,1.239,0,.168.147.21.42.21.883,0,1.6-.042,2.29-.042s1.408.042,2.29.042c.273,0,.42-.042.42-.21,0-.525-1.554.126-1.554-1.239v-7.039h2l.315-1.093H343.16C343.118,247.091,342.74,246,342.74,244.4Z" transform="translate(-230.957 -242.28)" fill="#fff"/><path d="M359.977,261c-.252,0-.441.735-1.176.735-.294,0-.4-.273-.4-.525V255.2c0-1.576-.757-2.48-2.563-2.48-2.647,0-5.211,1.639-5.211,3.047a.986.986,0,0,0,1.051,1.029c1.009,0,1.366-.441,1.6-1.659a2.036,2.036,0,0,1,2.017-1.912c.525,0,.8.252.8.756v2.71c-3.677,1.135-5.777,2.143-5.777,4.034,0,1.2.924,1.869,2.227,1.869a6.44,6.44,0,0,0,3.614-1.513c.189.861.462,1.513,1.786,1.513a2.522,2.522,0,0,0,2.248-1.429C360.187,261.038,360.1,261,359.977,261Zm-3.887-.462a3.7,3.7,0,0,1-2.311,1.219c-.9,0-1.156-.988-1.156-1.7,0-1.492,1.471-2.227,3.466-2.942Z" transform="translate(-235.544 -246.626)" fill="#fff"/><path d="M370.894,254.294c0-.546.546-1.072,1.534-1.072a2.6,2.6,0,0,1,2.479,1.681c.42.883.42,1.155.588,1.155.126,0,.168-.041.168-.21V253.39a8.2,8.2,0,0,0-3.151-.672c-2.437,0-3.341,1.555-3.341,2.669,0,3.382,5.421,2.752,5.421,5.21,0,.9-.714,1.492-1.785,1.492a3.231,3.231,0,0,1-2.921-2.08c-.525-1.008-.378-1.344-.63-1.344-.105,0-.147.063-.147.189v3.088a9.159,9.159,0,0,0,3.3.651c2.479,0,3.908-1.3,3.908-3.151C376.315,255.954,370.894,256.5,370.894,254.294Z" transform="translate(-243.369 -246.626)" fill="#fff"/><path d="M390.068,258.28c-.125,0-.147.188-.4.5a1.777,1.777,0,0,1-1.386.715c-1.03,0-1.492-.693-1.492-2.227v-5.421h2.374l.5-1.093h-2.878v-3.151a25.151,25.151,0,0,1-3.866,4.244h1.555v6.072c0,1.513.966,2.542,2.815,2.542a2.8,2.8,0,0,0,2.9-2.038A.139.139,0,0,0,390.068,258.28Z" transform="translate(-249.121 -244.498)" fill="#fff"/><path d="M410.1,261.017v-8.3c-2.984,1.219-3.992,1.072-3.992,1.471s1.681.084,1.681,1.618v5.211c0,1.365-1.555.714-1.555,1.239,0,.168.147.21.42.21.882,0,1.6-.042,2.29-.042s1.408.042,2.29.042c.273,0,.42-.042.42-.21C411.655,261.731,410.1,262.383,410.1,261.017Z" transform="translate(-258.773 -246.626)" fill="#fff"/><circle cx="1.429" cy="1.429" r="1.429" transform="translate(148.68 1.722)" fill="#fff"/><path d="M425.452,259.021c-.294,0-.525,2.017-3.11,2.017-2.332,0-3.487-2.143-3.487-4.181,0-2.185.756-3.635,2.69-3.635a1.3,1.3,0,0,1,1.491,1.429c0,.567-.042.882-.042,1.239a1.185,1.185,0,0,0,1.24,1.282c.8,0,1.2-.483,1.2-1.386,0-1.513-1.471-3.068-3.887-3.068a4.922,4.922,0,0,0-4.791,5.253,4.557,4.557,0,0,0,4.727,4.622,4.082,4.082,0,0,0,4.181-3.382C425.661,259.063,425.578,259.021,425.452,259.021Z" transform="translate(-263.204 -246.626)" fill="#fff"/><path d="M443.322,257v-5.946a2.13,2.13,0,0,0-2.4-2.353c-1.365,0-2.353.567-3.845,1.681v-7.312c-2.563,1.219-3.991,1.009-3.991,1.471s1.68,0,1.68,1.744V257c0,1.365-1.555.714-1.555,1.239,0,.168.147.21.42.21.883,0,1.6-.042,2.29-.042s1.408.042,2.29.042c.273,0,.42-.042.42-.21,0-.525-1.555.126-1.555-1.239v-6.03a4.81,4.81,0,0,1,2.606-1.3,1.3,1.3,0,0,1,1.324,1.366V257c0,1.365-1.555.714-1.555,1.239,0,.168.147.21.42.21.883,0,1.6-.042,2.29-.042s1.408.042,2.29.042c.273,0,.42-.042.42-.21C444.877,257.715,443.322,258.366,443.322,257Z" transform="translate(-270.006 -242.61)" fill="#fff"/><path d="M458.768,261.017v-8.3c-2.983,1.219-3.992,1.072-3.992,1.471s1.681.084,1.681,1.618v5.211c0,1.365-1.554.714-1.554,1.239,0,.168.147.21.42.21.882,0,1.6-.042,2.289-.042s1.408.042,2.29.042c.273,0,.42-.042.42-.21C460.323,261.731,458.768,262.383,458.768,261.017Z" transform="translate(-279.035 -246.626)" fill="#fff"/><path d="M458.509,248.088a1.429,1.429,0,1,0-1.429-1.428A1.416,1.416,0,0,0,458.509,248.088Z" transform="translate(-279.993 -243.508)" fill="#fff"/></g><g transform="translate(153.679 218.526)"><path d="M222.732,223.436a5.493,5.493,0,0,0,3.2,3.939.162.162,0,0,0,.128-.05c.3-.288,1.2-.476,1.2-.566,0-.01-.02-.02-.07-.03a5.556,5.556,0,0,1-4.306-3.462h3.582c.168,0,.218-.06.218-.12,0-.228-.685-.773-.942-.863a.351.351,0,0,0-.109-.029c-.1,0-.456.456-.585.674a.188.188,0,0,1-.159.089H222.8a6.428,6.428,0,0,0,.06-.763c0-.258.01-.714.01-1.191h2.51c.169,0,.218-.06.218-.119,0-.169-.575-.744-.913-.873a.127.127,0,0,0-.06-.01c-.139,0-.506.506-.605.665a.184.184,0,0,1-.149.089h-1c0-1.508.01-1.528.228-1.617.139-.06.228-.149.228-.228,0-.268-1.22-.377-1.27-.377s-.06,0-.06.04c0,.01.01.02.01.04a7.254,7.254,0,0,1,.1,1.32v.824c-.7-.01-1.974-.05-2.837-.159,0,.129.288.516.466.516h.01c.754-.079,1.746-.1,2.361-.109v1.1a5.961,5.961,0,0,1-.069.853h-.417c-.565,0-2.321-.04-3.333-.159,0,.13.318.517.506.517h.01c.883-.09,2.222-.109,2.768-.109h.417a5.376,5.376,0,0,1-3.829,4.167c-.139.04-.248.1-.248.139,0,.01.03.02.089.02A5.388,5.388,0,0,0,222.732,223.436Z" transform="translate(-217.91 -218.555)" fill="#fff"/><path d="M237.307,225.141a3.065,3.065,0,0,1,.417.516c.149.238.308.337.447.337.189,0,.337-.2.337-.447,0-.357-.318-.695-.953-1a11.716,11.716,0,0,0,.575-2.649c.02-.208.129-.189.218-.238s.188-.109.188-.208c0-.238-.714-.625-.763-.625-.069,0-.238.189-.278.238s-.069.1-.129.1l-.556.01c.109-.645.189-1.211.238-1.518.04-.228.04-.258.228-.347.129-.06.228-.139.228-.218,0-.288-1.121-.427-1.141-.427s-.03.01-.03.05v.06c.01.1.02.218.02.337a16.968,16.968,0,0,1-.2,2.054,11.434,11.434,0,0,1-1.211-.1c0,.129.278.486.417.486h.01c.278-.04.516-.06.734-.079a26.08,26.08,0,0,1-.734,3.3.362.362,0,0,0-.02.139c0,.179.139.258.3.258a.5.5,0,0,0,.486-.347l.089-.407a2.542,2.542,0,0,1,.625.337,4.737,4.737,0,0,1-1.905,2.52c-.169.109-.258.179-.258.218,0,.01.01.02.03.02A4.266,4.266,0,0,0,237.307,225.141Zm-1.042-.913c.159-.794.337-1.855.5-2.788l.625-.01c.05,0,.079.02.079.089a14.347,14.347,0,0,1-.486,2.817A3.559,3.559,0,0,0,236.265,224.228Z" transform="translate(-224.895 -218.582)" fill="#fff"/><path d="M244.6,221.5a25.068,25.068,0,0,1-2.778-.139c0,.139.308.466.467.466h.009c.863-.069,1.617-.079,2.3-.079h.546c0,.05-.01.089-.01.129v.01a.286.286,0,0,0,.318.3.39.39,0,0,0,.417-.357v-.02c-.03-.407-.069-1.141-.069-1.518s0-.387.189-.506c.119-.079.208-.149.208-.238,0-.248-.744-.6-.824-.6a.138.138,0,0,0-.1.05,2.9,2.9,0,0,0-.2.258.14.14,0,0,1-.119.06h-.4c-.337,0-1.855-.01-2.689-.119,0,.139.278.447.447.447h.01c.7-.079,1.914-.079,2.222-.079h.466a.12.12,0,0,1,.129.129c.01.139.01.387.01.685H244.7a22.447,22.447,0,0,1-2.629-.129.714.714,0,0,0,.466.456h.01c.863-.069,1.468-.079,2.153-.079h.456c0,.3-.01.605-.01.873Z" transform="translate(-227.867 -218.703)" fill="#fff"/><path d="M244.309,229.061a.162.162,0,0,0,.179.139.9.9,0,0,0,.943-.893v-.02c0-.149-.02-.288-.02-.437s-.01-.318-.01-.476V227.2c.01-.278.02-.238.228-.367.109-.069.159-.129.159-.2,0-.149-.387-.4-.556-.5a2.141,2.141,0,0,1,.913-.526c.278-.029.387-.128.387-.258,0-.238-.675-.773-.814-.773-.03,0-.109.01-.327.268a.23.23,0,0,1-.149.069h-3.711c-.069-.436-.179-.625-.228-.625-.029,0-.039.06-.05.159a1.635,1.635,0,0,1-.615,1.17.564.564,0,0,0-.189.4.392.392,0,0,0,.4.4c.208,0,.7-.268.7-1.19v-.06h3.691c.03,0,.069.01.069.06a5.018,5.018,0,0,1-.268.823c-.01,0-.03-.01-.04-.01-.05,0-.119.04-.268.288a.14.14,0,0,1-.119.079h-.893c0-.06.01-.129.01-.189.01-.307.04-.268.179-.357.089-.05.159-.119.159-.189,0-.178-.833-.307-1.032-.307-.02,0-.02.01-.02.02a.221.221,0,0,0,.01.069,6.152,6.152,0,0,1,.069.953h-.734l-.04-.03a3.767,3.767,0,0,0-.883-.406c-.02,0-.02.009-.02.029v.04a7.521,7.521,0,0,1,.089,1.022c0,.417-.009,1.121-.069,1.9v.04a.276.276,0,0,0,.287.308.394.394,0,0,0,.407-.367c0-.317-.01-.675-.01-1.012s.01-.675.019-.913-.009-.218.149-.308l.05-.04h.754c0,.764-.03,1.726-.079,2.887v.03a.306.306,0,0,0,.317.347.45.45,0,0,0,.437-.407v-.01l-.04-1.032A1.486,1.486,0,0,1,244.309,229.061Zm-.576-.675c-.01-.417-.01-.824-.01-1.23v-.5h.913c.05,0,.139.01.139.149.01.308.01.536.01.774,0,.754,0,.9-.417.9a2.568,2.568,0,0,1-.556-.079A.308.308,0,0,0,243.734,228.386Z" transform="translate(-227.294 -220.925)" fill="#fff"/><path d="M261.345,224.2c0,.02.07.059.159.109a3.1,3.1,0,0,1,.833.675.389.389,0,0,0,.268.149.315.315,0,0,0,.3-.338c0-.327-.4-.674-1.17-.674C261.713,224.119,261.345,224.119,261.345,224.2Z" transform="translate(-235.993 -220.854)" fill="#fff"/><path d="M253.473,223.317a1.4,1.4,0,0,0,.645-.139,12.487,12.487,0,0,1,2.1-.953c.01,0,.01,0,.01.01s-.05.05-.1.119a5.36,5.36,0,0,0-.933,3.125c0,1.905,1.082,2.55,2.114,2.55.347,0,1.25-.089,1.25-.6a.461.461,0,0,0-.516-.407.967.967,0,0,0-.278.05,1.7,1.7,0,0,1-.566.1c-.248,0-1.538-.06-1.538-2.084,0-1.24.506-2.688,1.161-3.056a3.365,3.365,0,0,1,1.438-.278,3.282,3.282,0,0,1,.546.04,1.939,1.939,0,0,0,.229.02c.377,0,.545-.179.545-.367,0-.288-.386-.546-1.121-.546h-.05a2.582,2.582,0,0,0-.814.208,33.769,33.769,0,0,0-3.681,1.488,1.791,1.791,0,0,1-.645.119,2.13,2.13,0,0,1-.447-.05.865.865,0,0,0-.2-.04c-.05,0-.089.02-.089.119C252.541,223.119,253,223.317,253.473,223.317Z" transform="translate(-232.328 -219.517)" fill="#fff"/><path d="M263.1,223.409c0,.03.07.069.159.109a3.1,3.1,0,0,1,.863.655.373.373,0,0,0,.268.139.314.314,0,0,0,.288-.337c0-.3-.327-.655-1.131-.655C263.265,223.32,263.1,223.38,263.1,223.409Z" transform="translate(-236.722 -220.522)" fill="#fff"/><path d="M274.08,219.812c.08.3.258.417.427.417a.452.452,0,0,0,.417-.466c0-.655-1.131-1.032-1.4-1.032-.021,0-.03.01-.03.02s.03.05.08.119A3.515,3.515,0,0,1,274.08,219.812Z" transform="translate(-241.051 -218.611)" fill="#fff"/><path d="M271.091,220.249a.492.492,0,0,0,.437.357.441.441,0,0,0,.406-.456c0-.566-.923-.893-1.508-.893-.04,0-.06,0-.06.02s.03.05.089.109A3.859,3.859,0,0,1,271.091,220.249Z" transform="translate(-239.749 -218.831)" fill="#fff"/><path d="M271.232,226.89c-.01,0-.01-.01-.02-.01a4,4,0,0,0-1-.466.026.026,0,0,0-.03.03.426.426,0,0,1,.01.05,6.22,6.22,0,0,1,.1,1.062,14.374,14.374,0,0,1-.079,1.707v.04c0,.208.159.3.347.3.218,0,.456-.119.456-.347v-.308h4.117c0,.089-.01.179-.01.268v.01a.313.313,0,0,0,.347.308.422.422,0,0,0,.446-.357v-.03c-.04-.526-.079-.9-.079-1.29,0-.407.01-.407.2-.526.119-.069.179-.129.179-.2,0-.228-.794-.635-.843-.635-.02,0-.06,0-.357.337a.163.163,0,0,1-.139.06h-2.133c.159-.2.327-.456.466-.665a.291.291,0,0,1,.2-.149c.169-.04.238-.1.238-.149s-.03-.079-.089-.1l-.089-.029h.943v.089a.3.3,0,0,0,.327.308.4.4,0,0,0,.427-.367v-.02c-.04-.456-.079-.7-.079-.943,0-.337.02-.367.189-.456.119-.069.179-.129.179-.2,0-.149-.655-.625-.794-.625-.06,0-.089.03-.357.337a.156.156,0,0,1-.129.069h-2.292c-.01,0-.01-.02-.02-.02a4.085,4.085,0,0,0-.962-.466c-.02,0-.03.01-.03.04a.432.432,0,0,1,.01.05,7.321,7.321,0,0,1,.1,1.051,10.151,10.151,0,0,1-.079,1.28v.04a.289.289,0,0,0,.327.3.4.4,0,0,0,.437-.347V225.8h.873c.01.119.01.248.01.376a4.548,4.548,0,0,1-.079.714Zm.417-1.349c0-.159-.01-.308-.01-.446,0-.744,0-.744.218-.853h2.431c.089,0,.119.05.119.129.01.238.02.456.02.675,0,.159-.01.318-.01.5Zm3.353,1.6a.115.115,0,0,1,.129.129c.01.189.01.387.01.585,0,.268,0,.546-.01.833H271c0-.218-.011-.417-.011-.615,0-.784,0-.794.169-.893l.06-.04Z" transform="translate(-239.671 -220.6)" fill="#fff"/><path d="M275.489,220.449a.156.156,0,0,0-.079.03,2.248,2.248,0,0,0-.278.258.314.314,0,0,1-.149.079h-1.776c.377-.318.953-.9,1.181-1.141a.273.273,0,0,1,.258-.119c.2,0,.318-.06.318-.139,0-.228-1.032-.7-1.141-.7-.02,0-.02.02-.03.089a6.1,6.1,0,0,1-.8,2.014h-3.73c-.01-.238-.109-.784-.2-.784-.02,0-.04.05-.059.159a1.923,1.923,0,0,1-.893,1.32.665.665,0,0,0-.308.5.407.407,0,0,0,.437.388c.4,0,.933-.417,1.012-1.33h5.745c.03,0,.06.01.06.05a5.474,5.474,0,0,1-.506.943.248.248,0,0,0-.03.069c0,.02,0,.02.02.02a.259.259,0,0,0,.079-.03,4.574,4.574,0,0,1,1.389-.615c.308-.01.427-.1.427-.228C276.432,220.965,275.668,220.449,275.489,220.449Z" transform="translate(-238.68 -218.604)" fill="#fff"/><path d="M286.454,222.215a2.352,2.352,0,0,0,.357-.03v1.121a.924.924,0,0,0-.565-.208c-.427,0-.714.317-.714,1.011,0,.556.208,1.617.843,1.617a2.534,2.534,0,0,0-.079.605c0,1.4,1.577,1.508,1.994,1.508a2.319,2.319,0,0,0,2.55-1.846,7.6,7.6,0,0,0-.308-1.23,8.071,8.071,0,0,1-.128-1.29c0-.367.04-1.22.685-1.22a.668.668,0,0,1,.624.576c0,.278-.4.525-.853.783-.1.05-.159.109-.159.149,0,.019.02.029.069.029a.775.775,0,0,0,.169-.029,2.54,2.54,0,0,1,.635-.069,2.832,2.832,0,0,1,.308.02.47.47,0,0,0,.109.009.518.518,0,0,0,.525-.575,1.344,1.344,0,0,0-1.34-1.22c-.972,0-1.081,1.151-1.081,1.974,0,.437.04.963.079,1.588v.109c0,1.111-1.171,1.568-2.044,1.568-.556,0-1.458-.208-1.458-.982a2.147,2.147,0,0,1,.337-1,1.815,1.815,0,0,0,.258-.892,1.252,1.252,0,0,0-.119-.546c.02-.556.05-1.142.109-1.657.377-.1,1.369-.367,1.369-.9,0-.278-.3-.278-.566-.278a1.882,1.882,0,0,1-.6-.1v-.04a.655.655,0,0,0-.625-.625.3.3,0,0,0-.308.288c0,.06.06.1.12.159a.643.643,0,0,1,.178.466v.069c-.009.139-.009.288-.009.447-.12.01-.239.02-.367.02a1.358,1.358,0,0,1-.814-.218.7.7,0,0,0-.3-.159c-.03,0-.04.02-.04.05A1.28,1.28,0,0,0,286.454,222.215Zm.3,2.292c-.05.268-.138.6-.367.6-.367,0-.566-.744-.566-1.042,0-.119.03-.565.337-.565.258,0,.6.476.6.972Zm.625-3.2c.03-.139.06-.258.079-.377.417.238.417.248.417.278,0,.109-.347.218-.526.268Z" transform="translate(-245.967 -219.198)" fill="#fff"/><path d="M303.172,224.321c0,.953-.01,1.816-.02,2.054-.02.367-.189.506-.655.506a7.7,7.7,0,0,1-1.25-.149.483.483,0,0,0-.109-.01c-.019,0-.04,0-.04.01,0,.089,1.052.526,1.23.824a.25.25,0,0,0,.248.149,1.265,1.265,0,0,0,1.339-1.2v-.04c-.05-1.092-.05-1.151-.05-2.143h3.81c.169,0,.218-.05.218-.109,0-.159-.714-.943-1.022-.943-.169,0-.546.605-.615.714a.206.206,0,0,1-.168.089h-2.223v-1.756h3.1c.169,0,.208-.06.208-.119a1.759,1.759,0,0,0-.982-.873c-.109,0-.407.4-.585.665a.222.222,0,0,1-.169.089h-1.568c0-1.389.01-1.459.139-1.508s.208-.109.208-.179c0-.109-.228-.159-.3-.169.655-.079,1.23-.169,1.666-.258a.151.151,0,0,1,.07-.01.851.851,0,0,1,.169.03.585.585,0,0,0,.208.04c.1,0,.159-.03.159-.109,0-.258-.794-.863-.794-.863s-.03.02-.069.05c-.625.5-3.88,1.091-5.447,1.24-.149.01-.208.04-.208.079s.109.079.247.079c.913,0,2.084-.069,3.175-.179.069.407.069,1.687.069,1.756h-.139c-.556,0-2.292-.04-3.284-.159,0,.129.3.506.486.506h.01c.863-.089,2.2-.109,2.739-.109h.189c0,.516.01,1.151.01,1.756h-.7c-.576,0-2.451-.04-3.472-.159,0,.13.277.516.457.516h.01c.883-.089,2.4-.109,2.956-.109Z" transform="translate(-251.667 -218.746)" fill="#fff"/><path d="M327.242,222.262a.393.393,0,0,0,.268.149.315.315,0,0,0,.3-.337c0-.327-.4-.675-1.171-.675-.02,0-.387,0-.387.079,0,.02.069.06.159.109A3.1,3.1,0,0,1,327.242,222.262Z" transform="translate(-263.015 -219.722)" fill="#fff"/><path d="M316.773,225.239a1.793,1.793,0,0,0,1.24-.585,4.447,4.447,0,0,1,3-1.478,1.612,1.612,0,0,1,1.766,1.478c0,1.152-1.409,2.669-4.634,3.175-.3.05-.505.1-.505.139s.159.06.555.06h.05c3.453,0,5.258-1.647,5.258-3.116a2.436,2.436,0,0,0-2.609-2.153,6.1,6.1,0,0,0-3.1,1.091,4.757,4.757,0,0,1-1.717.734c-.139.009-.248.019-.248.089A.945.945,0,0,0,316.773,225.239Z" transform="translate(-258.677 -220.288)" fill="#fff"/><path d="M328.143,220.806a3.1,3.1,0,0,1,.863.655.371.371,0,0,0,.267.139.314.314,0,0,0,.288-.337c0-.446-.605-.645-1.111-.645-.238,0-.466.04-.466.089C327.984,220.736,328.053,220.766,328.143,220.806Z" transform="translate(-263.737 -219.396)" fill="#fff"/><path d="M335.541,227.146c.02.347.189.5.367.5.228,0,.486-.258.486-.675,0-1.141-1.25-2.57-2.083-3.452a.608.608,0,0,1-.179-.427.9.9,0,0,1,.109-.4,15,15,0,0,1,1.816-1.914,1.024,1.024,0,0,0,.287-.645c0-.546-.685-.824-.843-.824-.069,0-.1.02-.1.079a.39.39,0,0,0,.1.2.312.312,0,0,1,.07.208,1.47,1.47,0,0,1-.3.695c-.347.506-1.1,1.508-1.349,1.984a1.4,1.4,0,0,0-.189.645,1.01,1.01,0,0,0,.268.675A6.993,6.993,0,0,1,335.541,227.146Z" transform="translate(-266.131 -218.851)" fill="#fff"/><path d="M344.718,222.9c0,.794.4,1.547.675,1.547.2,0,.367-.248.367-.545a.8.8,0,0,0-.059-.3,2.8,2.8,0,0,1-.3-1.23c0-.972.517-1.756,1.042-1.756.615,0,1.041,1.151,1.041,2.4a5.594,5.594,0,0,1-2.222,4.5c-.218.149-.308.238-.308.268,0,.01.01.01.019.01a5.2,5.2,0,0,0,3.274-4.832c0-1.319-.526-2.817-1.578-2.817-.446,0-.9.327-1.18,1.062-.04.109-.069.159-.08.159a.035.035,0,0,1-.01-.02.668.668,0,0,1,.03-.139,6,6,0,0,0,.327-1.449c0-.6-.367-.794-.585-.794a.349.349,0,0,0-.317.228c0,.06.079.109.159.149.119.06.159.248.159.486a7.793,7.793,0,0,1-.179,1.28A9.521,9.521,0,0,0,344.718,222.9Z" transform="translate(-270.703 -218.71)" fill="#fff"/><path d="M359.137,221.025a4.022,4.022,0,0,0-4.008,3.889,1.634,1.634,0,0,0,.238.923c.386.566.585,1.27,1.111,1.27.942,0,2.589-2.272,2.589-4.345a1.843,1.843,0,0,0-.407-1.359c.109-.01.218-.02.327-.02h.04a2.716,2.716,0,0,1,2.828,2.8c0,1.934-1.558,3.175-3.294,3.651-.3.079-.447.149-.447.2,0,.02.04.03.139.03a5.69,5.69,0,0,0,3.245-1.32,3.479,3.479,0,0,0,1.111-2.52A3.205,3.205,0,0,0,359.137,221.025Zm-2.59,5.129c-.426,0-.873-.665-.873-1.538a3.351,3.351,0,0,1,2.411-3.105l.04-.01a.309.309,0,0,0,.079-.02.275.275,0,0,1,.089-.01c.3,0,.357.407.357.853C358.651,224.081,357.232,226.154,356.547,226.154Z" transform="translate(-275.038 -219.566)" fill="#fff"/><path d="M375.932,224.679a4.86,4.86,0,0,0-2.441.853c-.01-.585-.03-1.191-.03-1.766.8-.427,1.072-.655,1.072-.972a.288.288,0,0,0-.327-.288h-.069a2.66,2.66,0,0,1-.645-.109,1.6,1.6,0,0,0,.01-.208c0-.5-.536-.7-.8-.7a.469.469,0,0,0-.5.347c0,.06.069.1.248.1.416,0,.476.3.556,1.439a2.356,2.356,0,0,1-1.131.3,2.113,2.113,0,0,1-.7-.109.463.463,0,0,0-.159-.05c-.03,0-.05.02-.05.079,0,.655.665.7.893.7a2.632,2.632,0,0,0,1.18-.307c.01.406.03.843.03,1.279,0,.179,0,.367-.009.546-1.37.853-1.647.943-1.756.943a.277.277,0,0,1-.119-.04.258.258,0,0,0-.109-.03c-.2,0-.456.437-.456.615,0,.159.1.278.347.278a1.807,1.807,0,0,0,.972-.367,1.365,1.365,0,0,1,.813.5.425.425,0,0,0,.337.258c.129,0,.437-.089.437-.824v-.06l-.02-1.052a3.867,3.867,0,0,1,2.272-1.071c.585,0,1.171.257,1.171.8,0,.744-.853,1.2-1.449,1.2a.668.668,0,0,1-.714-.754,1.676,1.676,0,0,1,.07-.476,1.232,1.232,0,0,0,.06-.337c0-.03,0-.05-.02-.05a2.276,2.276,0,0,0-.456,1.29.944.944,0,0,0,1.042,1c.9,0,2.113-.764,2.113-1.776C377.589,225.264,377.123,224.679,375.932,224.679Zm-2.46-1.786c0-.149.009-.278.019-.377.189.1.328.208.328.288,0,.119-.238.258-.347.318ZM373,226.951c-.01.129-.05.208-.318.208a4.125,4.125,0,0,1-.575-.06c.3-.218.6-.5.932-.774C373.025,226.534,373.015,226.742,373,226.951Z" transform="translate(-281.485 -219.757)" fill="#fff"/><path d="M382.113,223.9c0-.446-.6-.8-1.23-.8a1.546,1.546,0,0,0-1.379.814.026.026,0,0,0,.03.029.626.626,0,0,0,.278-.148,1.042,1.042,0,0,1,.655-.218c.169,0,.486.04.486.268a1.07,1.07,0,0,1-.308.6.413.413,0,0,0-.119.159.026.026,0,0,0,.03.03.431.431,0,0,0,.2-.079,2.332,2.332,0,0,1,.645-.218,2.314,2.314,0,0,0,.505-.129A.319.319,0,0,0,382.113,223.9Z" transform="translate(-285.186 -220.43)" fill="#fff"/><path d="M395.463,222.82c-.02,0-.04-.01-.069-.01-.149,0-.486.536-.5.556a.171.171,0,0,1-.139.079h-1.309a23.74,23.74,0,0,1-2.51-.139c0,.109.258.466.417.466h.01c.526-.049,1.062-.069,1.5-.079v.317a5.778,5.778,0,0,1-.1.853h-.327l-.03-.02a4.378,4.378,0,0,0-.972-.437.021.021,0,0,0-.02.02c0,.02.01.029.01.06a9.27,9.27,0,0,1,.1,1.19c.01.189.01.417.01.675,0,.7-.02,1.617-.089,2.51v.04a.3.3,0,0,0,.327.308.409.409,0,0,0,.437-.367v-.506h2.282c0,.169-.01.337-.01.5v.01a.3.3,0,0,0,.327.308.421.421,0,0,0,.447-.387v-.01c-.04-.963-.079-2.094-.079-2.749,0-.555,0-.566.2-.695.119-.079.2-.149.2-.228,0-.228-.714-.616-.814-.616s-.2.13-.337.318a.207.207,0,0,1-.139.08h-1.2c.159-.2.357-.466.486-.665a.238.238,0,0,1,.188-.138c.179-.02.248-.08.248-.149s-.168-.159-.376-.228h2.43c.159,0,.2-.06.2-.119C396.257,223.376,395.761,222.929,395.463,222.82Zm-.962,5.258h-2.292c0-.486-.01-.982-.01-1.439h2.311C394.511,227.086,394.511,227.582,394.5,228.078Zm-.159-2.956a.133.133,0,0,1,.149.138c.01.258.02.655.02,1.121H392.2c0-.367,0-.685.01-.9.01-.247.02-.238.139-.318l.05-.039Z" transform="translate(-289.946 -220.309)" fill="#fff"/><path d="M386.232,221.642c.4,0,.923-.447,1-1.31h5.417a.047.047,0,0,1,.05.05,3.873,3.873,0,0,1-.536.784.154.154,0,0,0-.03.06.021.021,0,0,0,.02.02.246.246,0,0,0,.069-.02,4.557,4.557,0,0,1,1.459-.466c.3-.01.427-.109.427-.238,0-.327-.784-.8-.933-.8-.069,0-.278.2-.367.288a.313.313,0,0,1-.149.079H390.32l.03-.575c.02-.248.03-.248.208-.347.148-.079.228-.159.228-.228,0-.248-1.28-.407-1.31-.407a.026.026,0,0,0-.03.03c0,.01.01.03.02.069a6.943,6.943,0,0,1,.119,1.161v.3h-2.342c-.02-.546-.159-.774-.189-.774s-.04.05-.06.149a1.909,1.909,0,0,1-.893,1.3.678.678,0,0,0-.3.5A.4.4,0,0,0,386.232,221.642Z" transform="translate(-287.809 -218.526)" fill="#fff"/><path d="M386.818,224.647v.376c-.01.853-.089,2.689-.169,3.642v.04a.3.3,0,0,0,.337.3.42.42,0,0,0,.447-.387c0-.893.01-3.106.069-3.968.02-.208.02-.239.149-.3s.189-.118.189-.178-.079-.129-.407-.2q.327-.386.655-.833c.109-.149.139-.169.268-.179.208-.01.308-.07.308-.149,0-.208-.933-.665-1-.665-.03,0-.03.03-.04.079a9.053,9.053,0,0,1-2.609,3.641c-.109.079-.159.139-.159.159s0,.01.01.01A5.387,5.387,0,0,0,386.818,224.647Z" transform="translate(-287.412 -220.033)" fill="#fff"/></g></g></svg>